<svg xmlns="http://www.w3.org/2000/svg" xmlns:xlink="http://www.w3.org/1999/xlink" version="1.1" x="0px" y="0px" viewBox="0 0 512 640" enable-background="new 0 0 512 512" xml:space="preserve"><g><path d="M75.7,256h360.5c40.7,0,73.7-33.1,73.7-73.7s-33.1-73.7-73.7-73.7h-41.3c-4.2-45.9-42.8-81.9-89.8-81.9   c-14.3,0-28.3,3.4-41,9.9c-21.6-22-51-34.5-81.9-34.5C121.6,2,71.8,49.3,67.8,108.9C30.9,112.9,2,144.3,2,182.3   C2,222.9,35.1,256,75.7,256z M75.7,124.9h8.2v-8.2c0-54.2,44.1-98.3,98.3-98.3c28.4,0,55.4,12.3,74.1,33.8l4.5,5.2l5.9-3.6   c11.6-7.1,24.9-10.9,38.4-10.9c40.7,0,73.7,33.1,73.7,73.7v8.2h57.4c31.6,0,57.4,25.7,57.4,57.4s-25.7,57.4-57.4,57.4H75.7   c-31.6,0-57.4-25.7-57.4-57.4S44.1,124.9,75.7,124.9z"/><path d="M165.9,477.2h73.7v16.4H215V510h24.6h65.5h24.6v-16.4h-24.6v-16.4h73.7V329.7h-213V477.2z M288.8,493.6H256v-16.4h32.8   V493.6z M182.3,346.1h180.3v114.7h-57.4h-65.5h-57.4V346.1z"/><path d="M10.2,510h114.7V346.1H10.2V510z M26.6,362.5h81.9v131.1H26.6V362.5z"/><path d="M419.9,510h81.9V378.9h-81.9V510z M436.3,493.6v-16.4h49.2v16.4H436.3z M485.4,395.3v65.5h-49.2v-65.5H485.4z"/><rect x="59.4" y="469" width="16.4" height="16.4"/><polygon points="59.4,288.8 59.4,329.7 75.7,329.7 75.7,305.2 174.1,305.2 174.1,272.4 157.7,272.4 157.7,288.8  "/><polygon points="469,329.7 469,288.8 370.7,288.8 370.7,272.4 354.3,272.4 354.3,305.2 452.6,305.2 452.6,329.7  "/><rect x="264.2" y="272.4" width="16.4" height="49.2"/></g></svg>
