<svg xmlns="http://www.w3.org/2000/svg" xmlns:xlink="http://www.w3.org/1999/xlink" version="1.1" x="0px" y="0px" viewBox="0 0 512 640" enable-background="new 0 0 512 512" xml:space="preserve"><g><rect x="247.8" y="452.6" width="16.4" height="16.4"/><path d="M485.4,116.7c13.6,0,24.6-11,24.6-24.6V26.6C510,13,499,2,485.4,2H26.6C13,2,2,13,2,26.6v65.5c0,13.6,11,24.6,24.6,24.6   h221.2v24.6H26.6C13,141.3,2,152.3,2,165.9v65.5C2,245,13,256,26.6,256h221.2v24.6H26.6C13,280.6,2,291.6,2,305.2v65.5   c0,13.6,11,24.6,24.6,24.6h221.2v16.4h-41v41H51.2V469h155.7v41h98.3v-41h155.7v-16.4H305.2v-41h-41v-16.4h221.2   c13.6,0,24.6-11,24.6-24.6v-65.5c0-13.6-11-24.6-24.6-24.6H264.2V256h221.2c13.6,0,24.6-11,24.6-24.6v-65.5   c0-13.6-11-24.6-24.6-24.6H264.2v-24.6H485.4z M288.8,428.1v65.5h-65.5v-65.5H288.8z M485.4,297c4.5,0,8.2,3.7,8.2,8.2v65.5   c0,4.5-3.7,8.2-8.2,8.2H26.6c-4.5,0-8.2-3.7-8.2-8.2v-65.5c0-4.5,3.7-8.2,8.2-8.2H485.4z M485.4,157.7c4.5,0,8.2,3.7,8.2,8.2v65.5   c0,4.5-3.7,8.2-8.2,8.2H26.6c-4.5,0-8.2-3.7-8.2-8.2v-65.5c0-4.5,3.7-8.2,8.2-8.2H485.4z M26.6,100.3c-4.5,0-8.2-3.7-8.2-8.2V26.6   c0-4.5,3.7-8.2,8.2-8.2h458.8c4.5,0,8.2,3.7,8.2,8.2v65.5c0,4.5-3.7,8.2-8.2,8.2H26.6z"/><rect x="51.2" y="51.2" width="204.8" height="16.4"/><rect x="444.5" y="51.2" width="16.4" height="16.4"/><rect x="411.7" y="51.2" width="16.4" height="16.4"/><rect x="378.9" y="51.2" width="16.4" height="16.4"/><rect x="51.2" y="190.5" width="204.8" height="16.4"/><rect x="444.5" y="190.5" width="16.4" height="16.4"/><rect x="411.7" y="190.5" width="16.4" height="16.4"/><rect x="378.9" y="190.5" width="16.4" height="16.4"/><rect x="51.2" y="329.7" width="204.8" height="16.4"/><rect x="444.5" y="329.7" width="16.4" height="16.4"/><rect x="411.7" y="329.7" width="16.4" height="16.4"/><rect x="378.9" y="329.7" width="16.4" height="16.4"/></g></svg>
