<svg xmlns="http://www.w3.org/2000/svg" xmlns:xlink="http://www.w3.org/1999/xlink" version="1.1" x="0px" y="0px" viewBox="0 0 512 640" enable-background="new 0 0 512 512" xml:space="preserve"><g><path d="M510,313.4V215h-41V108.5c0-31.6-25.7-57.4-57.4-57.4h-24.6V2H124.9v49.2h-24.6C68.7,51.2,43,76.9,43,108.5V215H2v98.3   h98.3v-41h94.3l53.1,53.1v86.9c-20.5,3.5-36.8,19.7-40.2,40.2H100.3v-41H2V510h98.3v-41h107.3c3.9,23.2,24.1,41,48.4,41   c27.1,0,49.2-22.1,49.2-49.2c0-24.3-17.8-44.5-41-48.4v-86.9l53.1-53.1h94.3v41h41v99.1c-23.2,3.9-41,24.1-41,48.4   c0,27.1,22.1,49.2,49.2,49.2s49.2-22.1,49.2-49.2c0-24.3-17.8-44.5-41-48.4v-99.1H510z M83.9,493.6H18.4v-65.5h65.5V493.6z    M493.6,460.8c0,18.1-14.7,32.8-32.8,32.8s-32.8-14.7-32.8-32.8s14.7-32.8,32.8-32.8S493.6,442.8,493.6,460.8z M141.3,18.4h229.4   v81.9H141.3V18.4z M83.9,297H18.4v-65.5h65.5V297z M288.8,460.8c0,18.1-14.7,32.8-32.8,32.8s-32.8-14.7-32.8-32.8   s14.7-32.8,32.8-32.8S288.8,442.8,288.8,460.8z M256,310.5l-46.4-46.4l46.4-46.3l46.4,46.3L256,310.5z M317.3,256L256,194.7   L194.7,256h-94.3v-41h-41V108.5c0-22.6,18.4-41,41-41h24.6v49.2h262.2V67.5h24.6c22.6,0,41,18.4,41,41V215h-41v41H317.3z    M428.1,231.4h65.5V297h-65.5V231.4z"/><rect x="247.8" y="51.2" width="16.4" height="16.4"/><rect x="280.6" y="51.2" width="16.4" height="16.4"/><rect x="215" y="51.2" width="16.4" height="16.4"/></g></svg>
