<svg xmlns="http://www.w3.org/2000/svg" xmlns:xlink="http://www.w3.org/1999/xlink" version="1.1" x="0px" y="0px" viewBox="0 0 512 640" enable-background="new 0 0 512 512" xml:space="preserve"><g><path d="M152.8,231.3h206.3l3-23.1c2.5-19.9-2.5-40.3-13.8-56c-12.4-17.2-30.9-27-50.7-27h-20.6L256,158.7l-20.9-33.6h-20.6   c-19.8,0-38.3,9.8-50.8,27c-11.3,15.7-16.4,36.1-13.8,56.1L152.8,231.3z M177,161.8c9.4-12.9,23.1-20.3,37.6-20.3H226l30,48.2   l30-48.2h11.5c14.5,0,28.2,7.4,37.5,20.3c8.9,12.4,12.9,28.6,10.9,44.4l-1.1,8.8H167.2l-1.1-8.8C164.1,190.3,168.1,174.1,177,161.8   z"/><path d="M256,117c28.5,0,49.1-39.1,49.1-65.5c0-27.1-22-49.1-49.1-49.1s-49.1,22-49.1,49.1C206.9,77.9,227.5,117,256,117z    M256,18.8c18,0,32.7,14.7,32.7,32.7c0,20.3-16.9,49.1-32.7,49.1s-32.7-28.8-32.7-49.1C223.3,33.5,238,18.8,256,18.8z"/><path d="M150.3,403.4h-20.6L108.8,437l-20.9-33.6H67.3c-19.8,0-38.3,9.8-50.8,27C5.2,446.1,0.1,466.6,2.6,486.5l2.9,23.1h206.3   l3-23.1c2.5-19.9-2.5-40.3-13.8-56C188.6,413.2,170.1,403.4,150.3,403.4z M198.6,484.4l-1.1,8.8H20l-1.1-8.8   c-2-15.8,1.9-32,10.9-44.4c9.4-12.9,23.1-20.3,37.6-20.3h11.5l30,48.2l30-48.2h11.5c14.5,0,28.2,7.4,37.5,20.3   C196.6,452.4,200.6,468.6,198.6,484.4z"/><path d="M108.8,395.2c28.5,0,49.1-39.1,49.1-65.5c0-27.1-22-49.1-49.1-49.1s-49.1,22-49.1,49.1C59.7,356.1,80.3,395.2,108.8,395.2z    M108.8,297c18,0,32.7,14.7,32.7,32.7c0,20.3-16.9,49.1-32.7,49.1S76,350,76,329.7C76,311.7,90.7,297,108.8,297z"/><path d="M495.5,430.4c-12.4-17.2-30.9-27-50.7-27h-20.6L403.3,437l-20.9-33.6h-20.6c-19.8,0-38.3,9.8-50.8,27   c-11.3,15.7-16.4,36.1-13.8,56.1l2.9,23.1h206.3l2.9-23.1C511.9,466.6,506.8,446.1,495.5,430.4z M493.1,484.4l-1.1,8.8H314.5   l-1.1-8.8c-2-15.8,1.9-32,10.9-44.4c9.4-12.9,23.1-20.3,37.6-20.3h11.5l30,48.2l30-48.2h11.5c14.5,0,28.2,7.4,37.5,20.3   C491.2,452.4,495.1,468.6,493.1,484.4z"/><path d="M403.3,395.2c28.5,0,49.1-39.1,49.1-65.5c0-27.1-22-49.1-49.1-49.1c-27.1,0-49.1,22-49.1,49.1   C354.2,356.1,374.8,395.2,403.3,395.2z M403.3,297c18,0,32.7,14.7,32.7,32.7c0,20.3-16.9,49.1-32.7,49.1s-32.7-28.8-32.7-49.1   C370.6,311.7,385.2,297,403.3,297z"/><path d="M272.5,365.9l43.2,43.2l11.6-11.6l-43.2-43.2c2.9-4.9,4.6-10.5,4.6-16.5c0-15.2-10.5-27.9-24.5-31.6v-58.4h-16.4v58.4   c-14.1,3.7-24.5,16.4-24.5,31.6c0,6.1,1.8,11.7,4.6,16.5l-43.1,43.1l11.6,11.6l43.1-43.1c4.9,2.9,10.5,4.6,16.5,4.6   C262,370.6,267.6,368.8,272.5,365.9z M256,321.5c9,0,16.4,7.3,16.4,16.4c0,9-7.3,16.4-16.4,16.4s-16.4-7.3-16.4-16.4   C239.6,328.8,247,321.5,256,321.5z"/></g></svg>
