<svg xmlns="http://www.w3.org/2000/svg" xmlns:xlink="http://www.w3.org/1999/xlink" version="1.1" x="0px" y="0px" viewBox="0 0 512 640" enable-background="new 0 0 512 512" xml:space="preserve"><g><rect x="133.1" y="34.8" width="65.5" height="16.4"/><rect x="100.3" y="34.8" width="16.4" height="16.4"/><path d="M165.9,485.5c18.1,0,32.8-14.7,32.8-32.8s-14.7-32.8-32.8-32.8s-32.8,14.7-32.8,32.8S147.8,485.5,165.9,485.5z    M165.9,436.3c9,0,16.4,7.3,16.4,16.4s-7.4,16.4-16.4,16.4s-16.4-7.3-16.4-16.4S156.8,436.3,165.9,436.3z"/><path d="M329.7,171.1V83.8V67.4V2.1H2v65.4v16.4v311.7v16.4v98h327.7v-98v-16.4v-54.4c29.3-17,49.2-48.7,49.2-85   C378.9,219.8,359.1,188.1,329.7,171.1z M362.1,264.3c-1.6,16.5-8.2,31.5-18.1,43.6l-5.5-5.5L326.9,314l5.5,5.5   c-12.1,9.9-27.2,16.5-43.6,18.1v-7.8h-16.4v7.8c-16.5-1.6-31.5-8.2-43.6-18.1l5.5-5.5l-11.6-11.6l-5.5,5.5   c-9.9-12.1-16.5-27.2-18.1-43.6h7.8v-16.4h-7.8c1.6-16.5,8.2-31.5,18.1-43.6l5.5,5.5l11.6-11.6l-5.5-5.5   c12.1-9.9,27.2-16.5,43.6-18.1v7.8h16.4v-7.8c16.5,1.6,31.5,8.2,43.6,18.1l-5.5,5.5l11.6,11.6l5.5-5.5   c9.9,12.1,16.5,27.2,18.1,43.6h-7.8v16.4H362.1z M18.4,18.5h295v49h-295V18.5z M313.4,493.5h-295v-81.7h295V493.5z M313.4,395.5   h-295V83.8h295v79.7c-10.3-3.6-21.3-5.7-32.8-5.7c-54.2,0-98.3,44.1-98.3,98.3c0,54.2,44.1,98.3,98.3,98.3   c11.5,0,22.5-2.1,32.8-5.7V395.5z"/><path d="M284.2,247.3v-18.8c3.1,1.3,5,3.9,5.8,7.7l12.1-1.6c-0.8-4.8-2.8-8.6-5.8-11.5c-3-2.9-7.1-4.6-12.1-5.2v-4.8h-7v4.8   c-5.5,0.5-9.9,2.6-13.2,6.2c-3.3,3.6-5,8-5,13.2c0,5.2,1.5,9.6,4.4,13.2s7.5,6.3,13.8,8.1v20.1c-1.7-0.8-3.3-2.2-4.7-4   s-2.4-4.1-2.9-6.6l-12.5,1.3c1,6.3,3.2,11.2,6.6,14.6c3.5,3.5,8,5.5,13.5,6.2v8.7h7v-9c6.2-0.9,11.1-3.3,14.6-7.3s5.3-8.8,5.3-14.6   c0-5.2-1.4-9.4-4.2-12.7C297.1,252,291.9,249.3,284.2,247.3z M277.2,245c-2.1-0.9-3.6-2.1-4.7-3.5c-1-1.5-1.5-3-1.5-4.7   c0-1.9,0.6-3.6,1.7-5.1s2.6-2.6,4.5-3.3V245z M290,276.1c-1.5,1.8-3.5,2.9-5.9,3.3v-18.7c2.9,0.8,5,2,6.2,3.6   c1.3,1.6,1.9,3.4,1.9,5.5C292.3,272.2,291.5,274.3,290,276.1z"/><path d="M436.3,18.5c-40.7,0-73.7,33.1-73.7,73.7s33.1,73.7,73.7,73.7S510,132.9,510,92.2S476.9,18.5,436.3,18.5z M436.3,149.6   c-31.6,0-57.4-25.7-57.4-57.4s25.7-57.4,57.4-57.4s57.4,25.7,57.4,57.4S467.9,149.6,436.3,149.6z"/><path d="M438.9,85.8V72.1c2.3,1,3.7,2.8,4.2,5.6l8.8-1.2c-0.6-3.5-2-6.3-4.2-8.4c-2.2-2.1-5.1-3.3-8.8-3.8V61h-5.1v3.5   c-4,0.4-7.2,1.9-9.6,4.5c-2.4,2.6-3.6,5.8-3.6,9.6c0,3.8,1.1,7,3.2,9.6s5.5,4.6,10,5.9v14.6c-1.3-0.6-2.4-1.6-3.4-2.9   c-1-1.3-1.7-3-2.1-4.8l-9.1,1c0.7,4.6,2.3,8.1,4.8,10.6c2.5,2.5,5.8,4,9.8,4.5v6.4h5.1v-6.5c4.5-0.7,8.1-2.4,10.6-5.3   c2.5-2.9,3.8-6.4,3.8-10.6c0-3.8-1-6.9-3-9.3C448.3,89.3,444.5,87.3,438.9,85.8z M433.8,84.1c-1.5-0.7-2.6-1.5-3.4-2.6   c-0.7-1.1-1.1-2.2-1.1-3.4c0-1.3,0.4-2.6,1.2-3.7c0.8-1.1,1.9-1.9,3.3-2.4V84.1z M443.1,106.8c-1.1,1.3-2.5,2.1-4.3,2.4V95.6   c2.1,0.6,3.6,1.5,4.5,2.6c0.9,1.1,1.4,2.5,1.4,4C444.8,104,444.2,105.5,443.1,106.8z"/></g><text x="0" y="527" fill="#000000" font-size="5px" font-weight="bold" font-family="'Helvetica Neue', Helvetica, Arial-Unicode, Arial, Sans-serif">Created by ProSymbols</text><text x="0" y="532" fill="#000000" font-size="5px" font-weight="bold" font-family="'Helvetica Neue', Helvetica, Arial-Unicode, Arial, Sans-serif">from the Noun Project</text></svg>