<svg xmlns="http://www.w3.org/2000/svg" xmlns:xlink="http://www.w3.org/1999/xlink" version="1.1" x="0px" y="0px" viewBox="0 0 512 640" enable-background="new 0 0 512 512" xml:space="preserve">
  <g><path
    d="M477.2,362.5V92.1c0-13.6-11-24.6-24.6-24.6H59.4c-13.6,0-24.6,11-24.6,24.6v270.4H2v31.8c0,13.4,5.2,26,14.7,35.5   s22.1,14.7,35.5,14.7h407.7c13.4,0,26-5.2,35.5-14.7c9.5-9.5,14.7-22.1,14.7-35.5v-31.8H477.2z M51.2,92.1c0-4.5,3.7-8.2,8.2-8.2   h393.3c4.5,0,8.2,3.7,8.2,8.2v270.4H305.2v16.4h-98.3v-16.4H51.2V92.1z M493.6,394.3c0,9-3.5,17.5-9.9,23.9   c-6.4,6.4-14.9,9.9-23.9,9.9H52.2c-9,0-17.5-3.5-23.9-9.9s-9.9-14.9-9.9-23.9v-15.4h172.1v16.4h131.1v-16.4h172.1V394.3z"/><path d="M444.5,181.9v-81.6H67.5v81.6v164.2h376.9V181.9z M428.1,329.7H83.9V181.9h344.1V329.7z M428.1,165.6H83.9v-48.8h344.1   V165.6z"/><rect x="444.5" y="395.3" width="16.4" height="16.4"/><rect x="411.7" y="395.3" width="16.4" height="16.4"/><rect x="378.9" y="395.3" width="16.4" height="16.4"/><rect x="51.2" y="395.3" width="114.7" height="16.4"/><rect x="108.5" y="133.1" width="16.4" height="16.4"/><rect x="141.3" y="133.1" width="16.4" height="16.4"/><rect x="174.1" y="133.1" width="16.4" height="16.4"/><rect x="256" y="133.1" width="147.5" height="16.4"/><polygon points="204.1,290.8 169.3,256 203.7,221.6 192.1,210 146.1,256 192.5,302.4  "/><polygon points="316.1,290.8 327.7,302.4 373.7,256.4 327.3,210 315.8,221.6 350.6,256.4  "/><rect x="251.9" y="195.3" transform="matrix(0.8222 0.5693 -0.5693 0.8222 194.3192 -101.8065)" width="16.4" height="129.6"/></g>
  </svg>
