<svg xmlns="http://www.w3.org/2000/svg" xmlns:xlink="http://www.w3.org/1999/xlink" version="1.1" x="0px" y="0px" viewBox="0 0 512 640" enable-background="new 0 0 512 512" xml:space="preserve"><g><path d="M378.9,403.1h-8.2v-24.2h-65.5v16.4h49.2v7.8H137.8l-42.7,32.8l42.7,32.8h241.1c18.1,0,32.8-14.7,32.8-32.8   S397,403.1,378.9,403.1z M354.3,419.5v32.8H165.9v-32.8H354.3z M122,435.9l21.4-16.4h6.2v32.8h-6.2L122,435.9z M378.9,452.3h-8.2   v-32.8h8.2c9,0,16.4,7.3,16.4,16.4C395.3,444.9,387.9,452.3,378.9,452.3z"/><path d="M203.4,2L59.4,146.1V510h393.3V2H203.4z M198.6,30v111.3H87.3L198.6,30z M436.3,493.6H75.7V157.7H215V18.4h221.2V493.6z"/><path d="M387.1,182.3V43H264.2v139.3H387.1z M280.6,59.4h90.1v106.5h-90.1V59.4z"/><rect x="100.3" y="215" width="311.4" height="16.4"/><rect x="100.3" y="272.4" width="311.4" height="16.4"/><rect x="100.3" y="329.7" width="16.4" height="16.4"/><rect x="133.1" y="329.7" width="16.4" height="16.4"/><rect x="165.9" y="329.7" width="16.4" height="16.4"/></g></svg>
