<svg xmlns="http://www.w3.org/2000/svg" viewBox="0 0 512 640"><path d="M75.7 256h360.5c40.7 0 73.7-33.1 73.7-73.7s-33.1-73.7-73.7-73.7h-41.3c-4.2-45.9-42.8-81.9-89.8-81.9-14.3 0-28.3 3.4-41 9.9-21.6-22-51-34.5-81.9-34.5C121.6 2 71.8 49.3 67.8 108.9 30.9 112.9 2 144.3 2 182.3 2 222.9 35.1 256 75.7 256zm0-131.1h8.2v-8.2c0-54.2 44.1-98.3 98.3-98.3 28.4 0 55.4 12.3 74.1 33.8l4.5 5.2 5.9-3.6c11.6-7.1 24.9-10.9 38.4-10.9 40.7 0 73.7 33.1 73.7 73.7v8.2h57.4c31.6 0 57.4 25.7 57.4 57.4s-25.7 57.4-57.4 57.4H75.7c-31.6 0-57.4-25.7-57.4-57.4s25.8-57.3 57.4-57.3zm90.2 352.3h73.7v16.4H215V510h114.7v-16.4h-24.6v-16.4h73.7V329.7h-213v147.5zm122.9 16.4H256v-16.4h32.8v16.4zM182.3 346.1h180.3v114.7H182.3V346.1zM10.2 510h114.7V346.1H10.2V510zm16.4-147.5h81.9v131.1H26.6V362.5zM419.9 510h81.9V378.9h-81.9V510zm16.4-16.4v-16.4h49.2v16.4h-49.2zm49.1-98.3v65.5h-49.2v-65.5h49.2z"/><path d="M59.4 469h16.4v16.4H59.4zm0-180.2v40.9h16.3v-24.5h98.4v-32.8h-16.4v16.4zM469 329.7v-40.9h-98.3v-16.4h-16.4v32.8h98.3v24.5zm-204.8-57.3h16.4v49.2h-16.4z"/></svg>