<svg xmlns="http://www.w3.org/2000/svg" viewBox="0 0 512 640"><path d="M152.8 231.3h206.3l3-23.1c2.5-19.9-2.5-40.3-13.8-56-12.4-17.2-30.9-27-50.7-27H277l-21 33.5-20.9-33.6h-20.6c-19.8 0-38.3 9.8-50.8 27-11.3 15.7-16.4 36.1-13.8 56.1l2.9 23.1zm24.2-69.5c9.4-12.9 23.1-20.3 37.6-20.3H226l30 48.2 30-48.2h11.5c14.5 0 28.2 7.4 37.5 20.3 8.9 12.4 12.9 28.6 10.9 44.4l-1.1 8.8H167.2l-1.1-8.8c-2-15.9 2-32.1 10.9-44.4zm79-44.8c28.5 0 49.1-39.1 49.1-65.5 0-27.1-22-49.1-49.1-49.1s-49.1 22-49.1 49.1c0 26.4 20.6 65.5 49.1 65.5zm0-98.2c18 0 32.7 14.7 32.7 32.7 0 20.3-16.9 49.1-32.7 49.1s-32.7-28.8-32.7-49.1c0-18 14.7-32.7 32.7-32.7zM150.3 403.4h-20.6L108.8 437l-20.9-33.6H67.3c-19.8 0-38.3 9.8-50.8 27C5.2 446.1.1 466.6 2.6 486.5l2.9 23.1h206.3l3-23.1c2.5-19.9-2.5-40.3-13.8-56-12.4-17.3-30.9-27.1-50.7-27.1zm48.3 81l-1.1 8.8H20l-1.1-8.8c-2-15.8 1.9-32 10.9-44.4 9.4-12.9 23.1-20.3 37.6-20.3h11.5l30 48.2 30-48.2h11.5c14.5 0 28.2 7.4 37.5 20.3 8.7 12.4 12.7 28.6 10.7 44.4zm-89.8-89.2c28.5 0 49.1-39.1 49.1-65.5 0-27.1-22-49.1-49.1-49.1s-49.1 22-49.1 49.1c0 26.4 20.6 65.5 49.1 65.5zm0-98.2c18 0 32.7 14.7 32.7 32.7 0 20.3-16.9 49.1-32.7 49.1S76 350 76 329.7c0-18 14.7-32.7 32.8-32.7zm386.7 133.4c-12.4-17.2-30.9-27-50.7-27h-20.6L403.3 437l-20.9-33.6h-20.6c-19.8 0-38.3 9.8-50.8 27-11.3 15.7-16.4 36.1-13.8 56.1l2.9 23.1h206.3l2.9-23.1c2.6-19.9-2.5-40.4-13.8-56.1zm-2.4 54l-1.1 8.8H314.5l-1.1-8.8c-2-15.8 1.9-32 10.9-44.4 9.4-12.9 23.1-20.3 37.6-20.3h11.5l30 48.2 30-48.2h11.5c14.5 0 28.2 7.4 37.5 20.3 8.8 12.4 12.7 28.6 10.7 44.4zm-89.8-89.2c28.5 0 49.1-39.1 49.1-65.5 0-27.1-22-49.1-49.1-49.1s-49.1 22-49.1 49.1c0 26.4 20.6 65.5 49.1 65.5zm0-98.2c18 0 32.7 14.7 32.7 32.7 0 20.3-16.9 49.1-32.7 49.1s-32.7-28.8-32.7-49.1c0-18 14.6-32.7 32.7-32.7zm-130.8 68.9l43.2 43.2 11.6-11.6-43.2-43.2c2.9-4.9 4.6-10.5 4.6-16.5 0-15.2-10.5-27.9-24.5-31.6v-58.4h-16.4v58.4c-14.1 3.7-24.5 16.4-24.5 31.6 0 6.1 1.8 11.7 4.6 16.5l-43.1 43.1 11.6 11.6 43.1-43.1c4.9 2.9 10.5 4.6 16.5 4.6 6 .1 11.6-1.7 16.5-4.6zM256 321.5c9 0 16.4 7.3 16.4 16.4 0 9-7.3 16.4-16.4 16.4s-16.4-7.3-16.4-16.4c0-9.1 7.4-16.4 16.4-16.4z"/></svg>