<svg xmlns="http://www.w3.org/2000/svg" xmlns:xlink="http://www.w3.org/1999/xlink" version="1.1" x="0px" y="0px" viewBox="0 0 512 640" enable-background="new 0 0 512 512" xml:space="preserve"><g><path d="M358.4,300.3c12.5-94.2-12.8-193.1-73.4-264.2L256,2l-29.1,34.1c-60.5,71.1-85.8,170-73.3,264.2   c-27.8,27.4-43.8,65-43.8,104.1c0,24.1,6,47.9,17.3,69.1l10.4,19.4l4.7-21.5c5.9-26.8,20.8-50.2,42.4-67   c3.3,6.9,6.9,13.7,10.7,20.3l2.3,4.1h116.7l2.3-4.1c3.8-6.6,7.4-13.4,10.7-20.3c21.5,16.7,36.5,40.1,42.4,67l4.7,21.5l10.4-19.4   c11.3-21.1,17.3-45,17.3-69C402.2,365.3,386.2,327.7,358.4,300.3z M239.3,46.6L256,27l16.7,19.6c10.9,12.8,20.5,26.5,28.9,41h-91.3   C218.8,73.1,228.4,59.4,239.3,46.6z M133,446.4c-4.6-13.5-7-27.7-7-42c0-30.8,11.1-60.6,30.8-83.9c4.5,23.5,11.4,46.6,20.8,68.8   C157.6,404,142.2,423.6,133,446.4z M304.9,412.5h-97.8c-52.8-94.5-53.1-214.6-5.6-308.7h108.9C358.1,197.9,357.7,318,304.9,412.5z    M379,446.3c-9.2-22.7-24.6-42.4-44.7-57.1c9.4-22.1,16.3-45.2,20.8-68.8c19.7,23.3,30.9,53.1,30.9,83.9   C386,418.7,383.6,432.9,379,446.3z"/><rect x="247.9" y="347.5" width="16.3" height="16.2"/><rect x="215.4" y="347.5" width="16.3" height="16.2"/><rect x="280.4" y="347.5" width="16.3" height="16.2"/><path d="M256,266.3c22.4,0,40.6-18.2,40.6-40.6s-18.2-40.6-40.6-40.6s-40.6,18.2-40.6,40.6S233.6,266.3,256,266.3z M256,201.3   c13.4,0,24.4,10.9,24.4,24.4c0,13.4-10.9,24.4-24.4,24.4c-13.4,0-24.4-10.9-24.4-24.4C231.6,212.3,242.6,201.3,256,201.3z"/><rect x="247.9" y="445" width="16.2" height="40.6"/><rect x="288.5" y="469.4" width="16.2" height="40.6"/><rect x="207.3" y="469.4" width="16.2" height="40.6"/></g></svg>
