<svg xmlns="http://www.w3.org/2000/svg" viewBox="0 0 512 640"><path d="M380.7 142.8l13.6-13.6 11.6 11.6 11.6-11.6-11.6-11.6-11.6-11.6-11.6-11.6-11.6 11.6 11.6 11.6-15.5 15.5c-23.3-15.1-49.9-25.7-78.4-30.3V67.5H338V2H174.1v65.5h49.2V103c-28.5 4.6-55.1 15.1-78.4 30.3l-15.5-15.5 11.6-11.6-11.6-11.6-11.6 11.6-11.6 11.6-11.6 11.6 11.6 11.6 11.6-11.6 13.6 13.6c-48.7 37.5-80.1 96.3-80.1 162.3C51.2 418.1 143.1 510 256 510s204.8-91.9 204.8-204.8c0-66.1-31.4-124.9-80.1-162.4zM190.5 51.2V18.4h131.1v32.8H190.5zm81.9 16.3v32.9h-9.6c-2.3-.1-4.5-.2-6.8-.2s-4.5.1-6.8.2h-9.6V67.5h32.8zM256 493.6c-103.9 0-188.5-84.5-188.5-188.5 0-101.6 80.9-184.7 181.7-188.3h13.6c100.8 3.6 181.7 86.6 181.7 188.3 0 104-84.6 188.5-188.5 188.5z"/><path d="M256 149.5c-85.8 0-155.7 69.8-155.7 155.7S170.2 460.8 256 460.8 411.7 391 411.7 305.2 341.8 149.5 256 149.5zm104 248l-11.3-11.3-11.6 11.6 11.3 11.3c-22.7 20.2-52 33-84.2 34.9v-16h-16.4v16c-32.2-1.9-61.5-14.7-84.2-34.9l11.3-11.3-11.6-11.6-11.3 11.3c-20.2-22.7-33-52-34.9-84.2h16V297h-16c1.9-32.2 14.7-61.5 34.9-84.2l11.3 11.3 11.6-11.6-11.3-11.3c22.7-20.2 52-33 84.2-34.9v16h16.4v-16c32.2 1.9 61.5 14.7 84.2 34.9l-11.3 11.3 11.6 11.6 11.3-11.3c20.2 22.7 33 52 34.9 84.2h-16v16.4h16c-1.9 32.2-14.7 61.4-34.9 84.1z"/><path d="M264.2 273.6v-50.3h-16.4v50.3c-14.1 3.7-24.6 16.4-24.6 31.6 0 18.1 14.7 32.8 32.8 32.8s32.8-14.7 32.8-32.8c0-15.3-10.5-28-24.6-31.6zm-8.2 47.9c-9 0-16.4-7.3-16.4-16.4 0-9 7.3-16.4 16.4-16.4 9 0 16.4 7.3 16.4 16.4 0 9.1-7.4 16.4-16.4 16.4z"/></svg>