<svg xmlns="http://www.w3.org/2000/svg" xmlns:xlink="http://www.w3.org/1999/xlink" version="1.1" x="0px" y="0px" viewBox="0 0 512 640" enable-background="new 0 0 512 512" xml:space="preserve"><g><rect x="108.5" y="213.2" width="16.4" height="16.4"/><rect x="108.5" y="245.9" width="16.4" height="16.4"/><rect x="108.5" y="180.4" width="16.4" height="16.4"/><path d="M460.8,221.3c0-34.1-19.1-65-49.2-80.3V28.5c0-8.9-4.6-16.8-12.3-21.3c-7.7-4.4-16.9-4.5-24.8,0.1L171.8,131.2H51.2V164H2   v114.7h49.2v32.8h26.1l33.6,161.4c4.3,20.4,22.5,35.3,43.4,35.3c13.4,0,25.9-6,34.4-16.3s11.7-23.9,9-37l-29.9-143.3h4l202.9,123.9   l0.2,0.1c3.8,2.2,8.1,3.3,12.3,3.3s8.4-1.1,12.3-3.3c7.7-4.4,12.3-12.4,12.3-21.3V301.6C441.7,286.3,460.8,255.4,460.8,221.3z    M18.4,262.3v-81.9h32.8v81.9H18.4z M67.5,295.1v-16.4V164v-16.4h98.3v147.5h-1.5H73.9H67.5z M181.6,458.1   c1.7,8.3-0.3,16.8-5.7,23.3c-5.3,6.5-13.2,10.3-21.6,10.3c-13.1,0-24.6-9.3-27.3-22.2L94,311.5h57L181.6,458.1z M182.3,144   L354.3,38.9v364.9L182.3,298.7V144z M395.3,414.2c0,4.3-2.9,6.4-4.1,7.1c-1.2,0.7-4.4,2.1-8.1,0l-12.4-7.6V28.9l12.3-7.5   c3.7-2.1,7-0.7,8.2,0c1.2,0.7,4.1,2.8,4.1,7.1V414.2z M411.7,282.5V160.2c20.2,13.5,32.8,36.2,32.8,61.2   C444.5,246.2,431.9,269,411.7,282.5z"/><rect x="477.2" y="213.2" width="32.8" height="16.4"/><rect x="456.4" y="107" transform="matrix(0.7071 0.7071 -0.7071 0.7071 223.2995 -292.4014)" width="16.4" height="32.8"/><rect x="448.2" y="311.1" transform="matrix(-0.7072 -0.707 0.707 -0.7072 567.3795 873.6643)" width="32.8" height="16.4"/></g></svg>
