<svg xmlns="http://www.w3.org/2000/svg" viewBox="0 0 400 500"><title>Artboard 1 copy 7</title><g data-name="Immersive experience"><path d="M319.09 123.79a1442.68 1442.68 0 0 1-238.17 0 5 5 0 0 0-5.41 5v87.52a5 5 0 0 0 5.61 5 981.31 981.31 0 0 1 237.79 0 4.87 4.87 0 0 0 .61 0 5 5 0 0 0 5-5v-87.54a5 5 0 0 0-5.41-5zm-4.59 86.87a991.45 991.45 0 0 0-229 0V134.2a1453 1453 0 0 0 229 0zM87.23 241.23a12.77 12.77 0 0 1 25.54 0 2.5 2.5 0 0 0 5 0 17.77 17.77 0 0 0-35.54 0 2.5 2.5 0 0 0 5 0zm22.77 4.2a25.83 25.83 0 0 0-25.8 25.8 3.5 3.5 0 0 0 7 0 18.8 18.8 0 1 1 37.6 0 3.5 3.5 0 0 0 7 0 25.83 25.83 0 0 0-25.8-25.8zm61.5 0a25.83 25.83 0 0 0-25.8 25.8 3.5 3.5 0 0 0 7 0 18.8 18.8 0 1 1 37.6 0 3.5 3.5 0 0 0 7 0 25.83 25.83 0 0 0-25.8-25.8zm-123 0a3.5 3.5 0 1 0 0 7 18.82 18.82 0 0 1 18.8 18.8 3.5 3.5 0 0 0 7 0 25.83 25.83 0 0 0-25.8-25.8zm183 0a25.83 25.83 0 0 0-25.8 25.8 3.5 3.5 0 0 0 7 0 18.8 18.8 0 1 1 37.6 0 3.5 3.5 0 1 0 7 0 25.83 25.83 0 0 0-25.8-25.8zm60 0a25.83 25.83 0 0 0-25.8 25.8 3.5 3.5 0 0 0 7 0 18.8 18.8 0 1 1 37.6 0 3.5 3.5 0 0 0 7 0 25.83 25.83 0 0 0-25.8-25.8zm60 0a25.83 25.83 0 0 0-25.8 25.8 3.5 3.5 0 0 0 7 0 18.82 18.82 0 0 1 18.8-18.8 3.5 3.5 0 0 0 0-7zm-188.73-4.2a2.5 2.5 0 0 0 5 0 17.77 17.77 0 0 0-35.54 0 2.5 2.5 0 0 0 5 0 12.77 12.77 0 0 1 25.54 0zm50 0a2.5 2.5 0 0 0 5 0 17.77 17.77 0 0 0-35.54 0 2.5 2.5 0 0 0 5 0 12.77 12.77 0 0 1 25.54 0zm55 0a17.77 17.77 0 0 0-35.54 0 2.5 2.5 0 0 0 5 0 12.77 12.77 0 0 1 25.54 0 2.5 2.5 0 0 0 5 0zM300 223.46a17.79 17.79 0 0 0-17.77 17.77 2.5 2.5 0 1 0 5 0 12.77 12.77 0 0 1 25.54 0 2.5 2.5 0 0 0 5 0A17.79 17.79 0 0 0 300 223.46z"/><path d="M121.5 226.23a3.5 3.5 0 1 1 7 0 1.5 1.5 0 0 0 3 0 6.5 6.5 0 1 0-13 0 1.5 1.5 0 0 0 3 0zm50 0a3.5 3.5 0 0 1 7 0 1.5 1.5 0 0 0 3 0 6.5 6.5 0 0 0-13 0 1.5 1.5 0 0 0 3 0zm50 0a3.5 3.5 0 0 1 7 0 1.5 1.5 0 0 0 3 0 6.5 6.5 0 0 0-13 0 1.5 1.5 0 0 0 3 0zm50 0a3.5 3.5 0 0 1 7 0 1.5 1.5 0 0 0 3 0 6.5 6.5 0 0 0-13 0 1.5 1.5 0 0 0 3 0z"/></g></svg>