<svg xmlns="http://www.w3.org/2000/svg" viewBox="0 0 512 640"><path d="M477.2 362.5V92.1c0-13.6-11-24.6-24.6-24.6H59.4c-13.6 0-24.6 11-24.6 24.6v270.4H2v31.8c0 13.4 5.2 26 14.7 35.5s22.1 14.7 35.5 14.7h407.7c13.4 0 26-5.2 35.5-14.7s14.7-22.1 14.7-35.5v-31.8h-32.9zM51.2 92.1c0-4.5 3.7-8.2 8.2-8.2h393.3c4.5 0 8.2 3.7 8.2 8.2v270.4H305.2v16.4h-98.3v-16.4H51.2V92.1zm442.4 302.2c0 9-3.5 17.5-9.9 23.9-6.4 6.4-14.9 9.9-23.9 9.9H52.2c-9 0-17.5-3.5-23.9-9.9s-9.9-14.9-9.9-23.9v-15.4h172.1v16.4h131.1v-16.4h172.1v15.4z"/><path d="M444.5 181.9v-81.6h-377v245.8h376.9V181.9zm-16.4 147.8H83.9V181.9H428v147.8zm0-164.1H83.9v-48.8H428v48.8zm16.4 229.7h16.4v16.4h-16.4zm-32.8 0h16.4v16.4h-16.4zm-32.8 0h16.4v16.4h-16.4zm-327.7 0h114.7v16.4H51.2z"/><path d="M108.5 133.1h16.4v16.4h-16.4zm32.8 0h16.4v16.4h-16.4zm32.8 0h16.4v16.4h-16.4zm81.9 0h147.5v16.4H256zm-51.9 157.7L169.3 256l34.4-34.4-11.6-11.6-46 46 46.4 46.4zm112 0l11.6 11.6 46-46-46.4-46.4-11.5 11.6 34.8 34.8zm-25.853-88.624l13.484 9.336L229.95 318.07l-13.484-9.336z"/></svg>