<svg xmlns="http://www.w3.org/2000/svg" viewBox="0 0 512 640"><path d="M378.9 403.1h-8.2v-24.2h-65.5v16.4h49.2v7.8H137.8l-42.7 32.8 42.7 32.8h241.1c18.1 0 32.8-14.7 32.8-32.8s-14.7-32.8-32.8-32.8zm-24.6 16.4v32.8H165.9v-32.8h188.4zM122 435.9l21.4-16.4h6.2v32.8h-6.2L122 435.9zm256.9 16.4h-8.2v-32.8h8.2c9 0 16.4 7.3 16.4 16.4 0 9-7.4 16.4-16.4 16.4z"/><path d="M203.4 2l-144 144.1V510h393.3V2H203.4zm-4.8 28v111.3H87.3L198.6 30zm237.7 463.6H75.7V157.7H215V18.4h221.2v475.2z"/><path d="M387.1 182.3V43H264.2v139.3h122.9zM280.6 59.4h90.1v106.5h-90.1V59.4zM100.3 215h311.4v16.4H100.3zm0 57.4h311.4v16.4H100.3zm0 57.3h16.4v16.4h-16.4zm32.8 0h16.4v16.4h-16.4zm32.8 0h16.4v16.4h-16.4z"/></svg>