<svg xmlns="http://www.w3.org/2000/svg" viewBox="0 0 512 640"><path d="M133.1 34.8h65.5v16.4h-65.5zm-32.8 0h16.4v16.4h-16.4zm65.6 450.7c18.1 0 32.8-14.7 32.8-32.8s-14.7-32.8-32.8-32.8-32.8 14.7-32.8 32.8 14.7 32.8 32.8 32.8zm0-49.2c9 0 16.4 7.3 16.4 16.4s-7.4 16.4-16.4 16.4-16.4-7.3-16.4-16.4 7.3-16.4 16.4-16.4z"/><path d="M329.7 171.1V2.1H2V510h327.7V341.2c29.3-17 49.2-48.7 49.2-85 0-36.4-19.8-68.1-49.2-85.1zm32.4 93.2c-1.6 16.5-8.2 31.5-18.1 43.6l-5.5-5.5-11.6 11.6 5.5 5.5c-12.1 9.9-27.2 16.5-43.6 18.1v-7.8h-16.4v7.8c-16.5-1.6-31.5-8.2-43.6-18.1l5.5-5.5-11.6-11.6-5.5 5.5c-9.9-12.1-16.5-27.2-18.1-43.6h7.8v-16.4h-7.8c1.6-16.5 8.2-31.5 18.1-43.6l5.5 5.5 11.6-11.6-5.5-5.5c12.1-9.9 27.2-16.5 43.6-18.1v7.8h16.4v-7.8c16.5 1.6 31.5 8.2 43.6 18.1l-5.5 5.5 11.6 11.6 5.5-5.5c9.9 12.1 16.5 27.2 18.1 43.6h-7.8v16.4h7.8zM18.4 18.5h295v49h-295v-49zm295 475h-295v-81.7h295v81.7zm0-98h-295V83.8h295v79.7c-10.3-3.6-21.3-5.7-32.8-5.7-54.2 0-98.3 44.1-98.3 98.3 0 54.2 44.1 98.3 98.3 98.3 11.5 0 22.5-2.1 32.8-5.7v46.8z"/><path d="M284.2 247.3v-18.8c3.1 1.3 5 3.9 5.8 7.7l12.1-1.6c-.8-4.8-2.8-8.6-5.8-11.5-3-2.9-7.1-4.6-12.1-5.2v-4.8h-7v4.8c-5.5.5-9.9 2.6-13.2 6.2-3.3 3.6-5 8-5 13.2 0 5.2 1.5 9.6 4.4 13.2s7.5 6.3 13.8 8.1v20.1c-1.7-.8-3.3-2.2-4.7-4s-2.4-4.1-2.9-6.6l-12.5 1.3c1 6.3 3.2 11.2 6.6 14.6 3.5 3.5 8 5.5 13.5 6.2v8.7h7v-9c6.2-.9 11.1-3.3 14.6-7.3s5.3-8.8 5.3-14.6c0-5.2-1.4-9.4-4.2-12.7-2.8-3.3-8-6-15.7-8zm-7-2.3c-2.1-.9-3.6-2.1-4.7-3.5-1-1.5-1.5-3-1.5-4.7 0-1.9.6-3.6 1.7-5.1s2.6-2.6 4.5-3.3V245zm12.8 31.1c-1.5 1.8-3.5 2.9-5.9 3.3v-18.7c2.9.8 5 2 6.2 3.6 1.3 1.6 1.9 3.4 1.9 5.5.1 2.4-.7 4.5-2.2 6.3zM436.3 18.5c-40.7 0-73.7 33.1-73.7 73.7s33.1 73.7 73.7 73.7 73.7-33 73.7-73.7-33.1-73.7-73.7-73.7zm0 131.1c-31.6 0-57.4-25.7-57.4-57.4s25.7-57.4 57.4-57.4 57.4 25.7 57.4 57.4-25.8 57.4-57.4 57.4z"/><path d="M438.9 85.8V72.1c2.3 1 3.7 2.8 4.2 5.6l8.8-1.2c-.6-3.5-2-6.3-4.2-8.4-2.2-2.1-5.1-3.3-8.8-3.8V61h-5.1v3.5c-4 .4-7.2 1.9-9.6 4.5-2.4 2.6-3.6 5.8-3.6 9.6s1.1 7 3.2 9.6 5.5 4.6 10 5.9v14.6c-1.3-.6-2.4-1.6-3.4-2.9-1-1.3-1.7-3-2.1-4.8l-9.1 1c.7 4.6 2.3 8.1 4.8 10.6s5.8 4 9.8 4.5v6.4h5.1V117c4.5-.7 8.1-2.4 10.6-5.3s3.8-6.4 3.8-10.6c0-3.8-1-6.9-3-9.3-2-2.5-5.8-4.5-11.4-6zm-5.1-1.7c-1.5-.7-2.6-1.5-3.4-2.6-.7-1.1-1.1-2.2-1.1-3.4 0-1.3.4-2.6 1.2-3.7.8-1.1 1.9-1.9 3.3-2.4v12.1zm9.3 22.7c-1.1 1.3-2.5 2.1-4.3 2.4V95.6c2.1.6 3.6 1.5 4.5 2.6.9 1.1 1.4 2.5 1.4 4 .1 1.8-.5 3.3-1.6 4.6z"/><text y="527" font-size="5" font-weight="bold" font-family="'Helvetica Neue', Helvetica, Arial-Unicode, Arial, Sans-serif">Created by ProSymbols</text><text y="532" font-size="5" font-weight="bold" font-family="'Helvetica Neue', Helvetica, Arial-Unicode, Arial, Sans-serif">from the Noun Project</text></svg>