<svg xmlns="http://www.w3.org/2000/svg" viewBox="0 0 512 640"><path d="M108.5 213.2h16.4v16.4h-16.4zm0 32.7h16.4v16.4h-16.4zm0-65.5h16.4v16.4h-16.4z"/><path d="M460.8 221.3c0-34.1-19.1-65-49.2-80.3V28.5c0-8.9-4.6-16.8-12.3-21.3-7.7-4.4-16.9-4.5-24.8.1L171.8 131.2H51.2V164H2v114.7h49.2v32.8h26.1l33.6 161.4c4.3 20.4 22.5 35.3 43.4 35.3 13.4 0 25.9-6 34.4-16.3s11.7-23.9 9-37l-29.9-143.3h4l202.9 123.9.2.1c3.8 2.2 8.1 3.3 12.3 3.3s8.4-1.1 12.3-3.3c7.7-4.4 12.3-12.4 12.3-21.3V301.6c29.9-15.3 49-46.2 49-80.3zm-442.4 41v-81.9h32.8v81.9H18.4zm49.1 32.8V147.6h98.3v147.5H67.5zm114.1 163c1.7 8.3-.3 16.8-5.7 23.3-5.3 6.5-13.2 10.3-21.6 10.3-13.1 0-24.6-9.3-27.3-22.2l-33-158h57l30.6 146.6zm.7-314.1l172-105.1v364.9l-172-105.1V144zm213 270.2c0 4.3-2.9 6.4-4.1 7.1-1.2.7-4.4 2.1-8.1 0l-12.4-7.6V28.9l12.3-7.5c3.7-2.1 7-.7 8.2 0 1.2.7 4.1 2.8 4.1 7.1v385.7zm16.4-131.7V160.2c20.2 13.5 32.8 36.2 32.8 61.2 0 24.8-12.6 47.6-32.8 61.1zm65.5-69.3H510v16.4h-32.8zm-6.84-107.221l11.597 11.596-23.193 23.193-11.597-11.596zm0 230.798l-23.196-23.19 11.595-11.598 23.196 23.19z"/></svg>