<svg xmlns="http://www.w3.org/2000/svg" viewBox="0 0 512 640"><path d="M247.8 452.6h16.4V469h-16.4z"/><path d="M485.4 116.7c13.6 0 24.6-11 24.6-24.6V26.6C510 13 499 2 485.4 2H26.6C13 2 2 13 2 26.6v65.5c0 13.6 11 24.6 24.6 24.6h221.2v24.6H26.6C13 141.3 2 152.3 2 165.9v65.5C2 245 13 256 26.6 256h221.2v24.6H26.6C13 280.6 2 291.6 2 305.2v65.5c0 13.6 11 24.6 24.6 24.6h221.2v16.4h-41v41H51.2V469h155.7v41h98.3v-41h155.7v-16.4H305.2v-41h-41v-16.4h221.2c13.6 0 24.6-11 24.6-24.6v-65.5c0-13.6-11-24.6-24.6-24.6H264.2V256h221.2c13.6 0 24.6-11 24.6-24.6v-65.5c0-13.6-11-24.6-24.6-24.6H264.2v-24.6h221.2zM288.8 428.1v65.5h-65.5v-65.5h65.5zM485.4 297c4.5 0 8.2 3.7 8.2 8.2v65.5c0 4.5-3.7 8.2-8.2 8.2H26.6c-4.5 0-8.2-3.7-8.2-8.2v-65.5c0-4.5 3.7-8.2 8.2-8.2h458.8zm0-139.3c4.5 0 8.2 3.7 8.2 8.2v65.5c0 4.5-3.7 8.2-8.2 8.2H26.6c-4.5 0-8.2-3.7-8.2-8.2v-65.5c0-4.5 3.7-8.2 8.2-8.2h458.8zM26.6 100.3c-4.5 0-8.2-3.7-8.2-8.2V26.6c0-4.5 3.7-8.2 8.2-8.2h458.8c4.5 0 8.2 3.7 8.2 8.2v65.5c0 4.5-3.7 8.2-8.2 8.2H26.6z"/><path d="M51.2 51.2H256v16.4H51.2zm393.3 0h16.4v16.4h-16.4zm-32.8 0h16.4v16.4h-16.4zm-32.8 0h16.4v16.4h-16.4zM51.2 190.5H256v16.4H51.2zm393.3 0h16.4v16.4h-16.4zm-32.8 0h16.4v16.4h-16.4zm-32.8 0h16.4v16.4h-16.4zM51.2 329.7H256v16.4H51.2zm393.3 0h16.4v16.4h-16.4zm-32.8 0h16.4v16.4h-16.4zm-32.8 0h16.4v16.4h-16.4z"/></svg>