<svg xmlns="http://www.w3.org/2000/svg" viewBox="0 0 512 640"><path d="M510 313.4V215h-41V108.5c0-31.6-25.7-57.4-57.4-57.4H387V2H124.9v49.2h-24.6C68.7 51.2 43 76.9 43 108.5V215H2v98.3h98.3v-41h94.3l53.1 53.1v86.9c-20.5 3.5-36.8 19.7-40.2 40.2H100.3v-41H2V510h98.3v-41h107.3c3.9 23.2 24.1 41 48.4 41 27.1 0 49.2-22.1 49.2-49.2 0-24.3-17.8-44.5-41-48.4v-86.9l53.1-53.1h94.3v41h41v99.1c-23.2 3.9-41 24.1-41 48.4 0 27.1 22.1 49.2 49.2 49.2S510 488 510 460.9c0-24.3-17.8-44.5-41-48.4v-99.1h41zM83.9 493.6H18.4v-65.5h65.5v65.5zm409.7-32.8c0 18.1-14.7 32.8-32.8 32.8S428 478.9 428 460.8s14.7-32.8 32.8-32.8 32.8 14.8 32.8 32.8zM141.3 18.4h229.4v81.9H141.3V18.4zM83.9 297H18.4v-65.5h65.5V297zm204.9 163.8c0 18.1-14.7 32.8-32.8 32.8s-32.8-14.7-32.8-32.8S237.9 428 256 428s32.8 14.8 32.8 32.8zM256 310.5l-46.4-46.4 46.4-46.3 46.4 46.3-46.4 46.4zm61.3-54.5L256 194.7 194.7 256h-94.3v-41h-41V108.5c0-22.6 18.4-41 41-41H125v49.2h262.2V67.5h24.6c22.6 0 41 18.4 41 41V215h-41v41h-94.5zm110.8-24.6h65.5V297h-65.5v-65.6z"/><path d="M247.8 51.2h16.4v16.4h-16.4zm32.8 0H297v16.4h-16.4zm-65.6 0h16.4v16.4H215z"/></svg>