<svg xmlns="http://www.w3.org/2000/svg" xmlns:xlink="http://www.w3.org/1999/xlink" version="1.1" x="0px" y="0px" viewBox="0 0 100 125" enable-background="new 0 0 100 100" xml:space="preserve"><path d="M33.301,27.06c-0.804-0.759-2.069-0.721-2.827,0.081l-20.282,21.48c-0.728,0.771-0.728,1.976,0,2.746l20.282,21.492  c0.394,0.417,0.924,0.627,1.455,0.627c0.492,0,0.986-0.181,1.372-0.545c0.803-0.759,0.84-2.024,0.082-2.827l-18.986-20.12  l18.986-20.108C34.14,29.083,34.104,27.818,33.301,27.06z M89.809,48.633L69.525,27.141c-0.757-0.805-2.024-0.839-2.827-0.082  c-0.803,0.758-0.84,2.024-0.081,2.827l18.987,20.119L66.617,70.113c-0.759,0.804-0.722,2.069,0.081,2.827  c0.387,0.365,0.88,0.546,1.373,0.546c0.53,0,1.061-0.21,1.454-0.627l20.283-21.48C90.536,50.608,90.536,49.404,89.809,48.633z   M58.857,26.928c-1.031-0.394-2.188,0.12-2.584,1.15l-16.277,42.41c-0.396,1.031,0.119,2.188,1.15,2.584  c0.236,0.091,0.478,0.134,0.716,0.134c0.804,0,1.563-0.488,1.868-1.284l16.277-42.41C60.404,28.48,59.889,27.324,58.857,26.928z"/><text x="0" y="115" fill="#000000" font-size="5px" font-weight="bold" font-family="'Helvetica Neue', Helvetica, Arial-Unicode, Arial, Sans-serif">Created by IconDots</text><text x="0" y="120" fill="#000000" font-size="5px" font-weight="bold" font-family="'Helvetica Neue', Helvetica, Arial-Unicode, Arial, Sans-serif">from the Noun Project</text></svg>