<svg xmlns="http://www.w3.org/2000/svg" viewBox="0 0 100 125"><path d="M33.301 27.06a2 2 0 0 0-2.827.081l-20.282 21.48a2 2 0 0 0 0 2.746l20.282 21.492c.394.417.924.627 1.455.627a2 2 0 0 0 1.454-3.372l-18.986-20.12 18.986-20.108a2 2 0 0 0-.082-2.826zm56.508 21.573L69.525 27.141a2 2 0 1 0-2.908 2.745l18.987 20.119-18.987 20.108a2 2 0 1 0 2.908 2.746l20.283-21.48a2 2 0 0 0 .001-2.746zM58.857 26.928a2.003 2.003 0 0 0-2.584 1.15l-16.277 42.41a2 2 0 0 0 3.734 1.434l16.277-42.41a1.998 1.998 0 0 0-1.15-2.584z"/><text y="115" font-size="5" font-weight="bold" font-family="'Helvetica Neue', Helvetica, Arial-Unicode, Arial, Sans-serif">Created by IconDots</text><text y="120" font-size="5" font-weight="bold" font-family="'Helvetica Neue', Helvetica, Arial-Unicode, Arial, Sans-serif">from the Noun Project</text></svg>