<svg xmlns="http://www.w3.org/2000/svg" viewBox="0 0 65 81.25"><path d="M65.7 19.1H46.8l-5.5 11.8-5.5-11.8h-5.5c-1.7-6.8-6.5-11.7-6.8-12l-.5-.5-.5.5c-.2.3-5 5.2-6.8 12H-.7l6.4 13.8v25.6h53.5V32.8l6.5-13.7zm-18 1.5h15.6L58 31.9H42.5l5.2-11.3zm-12.9 0l5.3 11.3h-6.3c-.6-1.6-1.9-2.9-3.2-3.6.2-1.4.3-2.9.3-4.5 0-1.1-.1-2.2-.3-3.2h4.2zm-2 13.9c0 .4-.1.7-.2 1.1-.7-1.3-1.9-2.3-2.9-2.8.3-.9.5-1.8.6-2.8 1.3.8 2.6 2.5 2.5 4.5zM22.9 8.7c1.6 1.9 6.4 8 6.4 15.1 0 4-.6 7.8-1.8 10.7h-2l.3-2.9c.1-.7-.1-1.4-.6-2-.5-.5-1.2-.8-1.9-.8h-.8c-.7 0-1.4.3-1.9.8s-.7 1.3-.6 2l.3 2.9h-2c-1.2-2.9-1.8-6.7-1.8-10.7 0-7.1 4.8-13.2 6.4-15.1zm-1.4 22.8c0-.3.1-.6.3-.8.2-.2.5-.3.8-.3h.8c.3 0 .6.1.8.3.2.2.3.5.3.8l-.7 5.6h-1.5l-.8-5.6zm-5.3 1.2c-1 .5-2.2 1.5-2.9 2.8-.1-.4-.1-.7-.2-1.1-.1-1.9 1.2-3.7 2.4-4.5.2 1 .4 1.9.7 2.8zm-.9-12.1c-.2 1-.3 2.1-.3 3.2 0 1.5.1 3 .3 4.5-1.3.7-2.6 2-3.3 3.6H7L1.7 20.6h13.6zM7.2 33.4h4.4c0 .4-.1.7 0 1.1.1 1.3.5 2.6 1.1 3.6l1.2 2.1.2-2.4c.1-1.6 1.4-3 2.6-3.7.2.5.3.9.5 1.3l.2.4h3.2l.3 2.6H25l.3-2.6h3.2l.2-.4c.2-.4.4-.9.5-1.3 1.1.7 2.4 2.1 2.5 3.7l.2 2.4 1.2-2.1c.6-1 1-2.3 1.1-3.6v-1.1h6.3v23.5H7.2V33.4zm50.6 23.5H42V33.4h15.7v23.5z"/><path d="M10.6 53.2h1.5v1.5h-1.5zm7 0h1.5v1.5h-1.5zm-3.5 0h1.5v1.5h-1.5zm8.8-29.5c1.9 0 3.5-1.6 3.5-3.5s-1.6-3.5-3.5-3.5-3.5 1.6-3.5 3.5c.1 2 1.6 3.5 3.5 3.5zm0-5.4c1.1 0 2 .9 2 2s-.9 2-2 2-2-.9-2-2c.1-1.1.9-2 2-2zm-4.5 21h1.5v4h-1.5zm3.8 2.2h1.5v3.8h-1.5zm3.7-2.2h1.5v4h-1.5z"/><text y="80" font-size="5" font-weight="bold" font-family="'Helvetica Neue', Helvetica, Arial-Unicode, Arial, Sans-serif">Created by Creative Stall</text><text y="85" font-size="5" font-weight="bold" font-family="'Helvetica Neue', Helvetica, Arial-Unicode, Arial, Sans-serif">from the Noun Project</text></svg>