<svg xmlns="http://www.w3.org/2000/svg" viewBox="0 0 100 125"><path d="M68.191 73.58a1.5 1.5 0 0 0-1.082 2.797c3.059 1.185 3.875 2.354 3.875 2.857 0 1.822-7.406 5.37-20.984 5.37-13.579 0-20.986-3.548-20.986-5.37 0-.504.816-1.673 3.876-2.857a1.5 1.5 0 0 0-1.083-2.797c-4.788 1.854-5.793 4.099-5.793 5.655 0 5.495 12.066 8.37 23.986 8.37 11.918 0 23.984-2.875 23.984-8.37 0-1.556-1.004-3.8-5.793-5.655z"/><path d="M57.619 66.491a1.495 1.495 0 0 0-.488-.121 1.496 1.496 0 0 0-1.885.732l-4.793 9.773-4.932-9.956a1.495 1.495 0 0 0-1.847-.739 1.483 1.483 0 0 0-.436.084l-3.364 1.248c-2.657.985-4.373 3.445-4.373 6.268v5.448a1.5 1.5 0 1 0 3 0V73.78c0-1.578.926-2.902 2.416-3.455l2.486-.922 5.583 11.268a1.5 1.5 0 0 0 1.346.835c.068 0 .137-.014.205-.023.02.001.039.007.06.007.553 0 1.086-.309 1.348-.84l5.393-10.995 1.652.745c1.596.721 2.512 1.994 2.512 3.495v5.447a1.5 1.5 0 1 0 3 0v-5.447c0-2.692-1.6-5.021-4.277-6.229l-2.606-1.175z"/><path d="M41.923 53.94c-.845.671-1.38 1.885-1.38 3.277 0 1.563.665 2.871 1.662 3.474 1.333 3.962 4.568 6.571 8.254 6.571 3.704 0 6.952-2.633 8.272-6.625.953-.626 1.574-1.906 1.574-3.42 0-1.346-.496-2.525-1.295-3.209a11.862 11.862 0 0 0-.277-.962c-.014-.039-.025-.077-.041-.116-1.332-3.872-4.58-6.535-8.233-6.535-3.962.001-7.458 3.133-8.536 7.545zm15.181 4.152a1.501 1.501 0 0 0-1.063 1.067c-.803 3.053-3.045 5.104-5.583 5.104-2.535 0-4.777-2.049-5.582-5.098a1.5 1.5 0 0 0-1.141-1.086c-.083-.138-.193-.439-.193-.861 0-.072.008-.133.014-.197 2.176.26 4.65-.928 6.563-1.893.254.533.688 1.006 1.281 1.354.664.392 1.465.601 2.309.601 1.01 0 2.082-.307 3.059-.951.098.073.203.136.318.185.082.112.219.433.219.901 0 .435-.117.742-.201.874zm-6.646-8.696c2.159 0 4.118 1.535 5.137 3.844-.695.691-1.41.834-1.82.844-.418.012-.705-.098-.855-.187.461-1.085-.039-1.757-.285-2.002-.932-.927-2.01-.383-3.644.442-1.01.51-2.635 1.324-3.951 1.617.906-2.703 3.045-4.558 5.418-4.558zm-7.991-13.919c0-.698-.257-1.741-1.479-2.745a1.5 1.5 0 0 0-1.904 2.318c.316.26.377.418.384.418-.185.809-4.292 2.928-12.484 2.928-8.201 0-12.308-2.123-12.486-2.902 0-.002.062-.217.547-.568a1.5 1.5 0 1 0-1.762-2.428c-1.474 1.07-1.784 2.211-1.784 2.979 0 4.066 8.027 5.919 15.484 5.919 7.458 0 15.484-1.853 15.484-5.919z"/><path d="M19 35.382a1.5 1.5 0 0 0 1.5-1.5v-3.388c0-.75.423-1.354 1.132-1.618l1.089-.403 3.113 6.537c.257.54.794.855 1.355.855.042 0 .085-.011.128-.015.012.001.024.004.036.004.56 0 1.097-.314 1.354-.853l3.031-6.335.534.242c.458.206 1.227.695 1.227 1.655v3.388a1.5 1.5 0 1 0 3 0v-3.388c0-1.904-1.12-3.546-2.994-4.391l-1.618-.73a1.483 1.483 0 0 0-.739-.121 1.478 1.478 0 0 0-.527.029c.997-.758 1.797-1.851 2.271-3.181.653-.521 1.068-1.428 1.068-2.479 0-.925-.326-1.752-.862-2.293-.767-2.935-3.137-5.005-5.829-5.005-2.669 0-5.026 2.04-5.812 4.938-.575.533-.922 1.382-.922 2.359 0 1.086.442 2.013 1.127 2.524.463 1.273 1.227 2.326 2.175 3.072-.06-.012-.121-.016-.182-.02a1.466 1.466 0 0 0-.973.019l-2.093.775A4.69 4.69 0 0 0 17.5 30.49v3.388a1.5 1.5 0 0 0 1.5 1.504zm4.535-15.69c0-.055.005-.102.011-.14.371-.219.636-.59.715-1.026.327-1.814 1.592-3.132 3.008-3.132 1.419 0 2.685 1.321 3.009 3.142.074.417.32.777.667 1a.825.825 0 0 1 .007.269c-.369.191-.65.532-.76.95-.433 1.646-1.607 2.751-2.923 2.751-1.315 0-2.49-1.104-2.922-2.748a1.5 1.5 0 0 0-.807-.972.847.847 0 0 1-.005-.094zm3.734 6.815c.897 0 1.751-.229 2.525-.634-.068.087-.13.18-.18.284l-2.342 4.895-2.352-4.938a1.529 1.529 0 0 0-.134-.221 5.423 5.423 0 0 0 2.483.614zm59.751 6.224a1.5 1.5 0 0 0-1.904 2.318c.316.26.377.418.385.418-.186.809-4.293 2.928-12.484 2.928-8.201 0-12.309-2.123-12.484-2.902 0-.002.061-.217.547-.568a1.5 1.5 0 0 0-1.762-2.428c-1.475 1.069-1.785 2.211-1.785 2.979 0 4.066 8.027 5.919 15.484 5.919S88.5 39.543 88.5 35.477c0-.699-.258-1.741-1.48-2.746z"/><path d="M65.031 35.382a1.5 1.5 0 0 0 1.5-1.5v-3.388c0-.75.424-1.354 1.133-1.618l1.09-.403 3.113 6.537c.256.54.795.855 1.355.855.041 0 .084-.011.127-.015.012.001.023.004.035.004.561 0 1.098-.314 1.355-.853l3.031-6.334.533.241c.459.206 1.227.695 1.227 1.655v3.388a1.5 1.5 0 0 0 3 0v-3.388c0-1.904-1.119-3.546-2.994-4.391l-1.617-.73a1.48 1.48 0 0 0-.738-.121 1.489 1.489 0 0 0-.529.029c.998-.758 1.797-1.851 2.271-3.18.654-.521 1.068-1.429 1.068-2.479 0-.925-.326-1.752-.863-2.293-.766-2.935-3.137-5.005-5.828-5.005-2.67 0-5.025 2.04-5.811 4.938-.576.533-.924 1.381-.924 2.359 0 1.086.443 2.013 1.127 2.524.465 1.273 1.227 2.325 2.176 3.072a1.407 1.407 0 0 0-.182-.02 1.466 1.466 0 0 0-.973.019l-2.094.775a4.69 4.69 0 0 0-3.09 4.431v3.388a1.504 1.504 0 0 0 1.502 1.503zm4.535-15.69a.88.88 0 0 1 .012-.14c.371-.218.637-.59.715-1.026.328-1.814 1.592-3.132 3.008-3.132 1.42 0 2.686 1.321 3.01 3.142a1.5 1.5 0 0 0 .668 1 .825.825 0 0 1 .006.269c-.369.191-.65.532-.76.95-.434 1.646-1.607 2.751-2.924 2.751-1.314 0-2.49-1.104-2.922-2.748a1.497 1.497 0 0 0-.807-.972.646.646 0 0 1-.006-.094zm3.735 6.815c.898 0 1.752-.229 2.527-.634a1.39 1.39 0 0 0-.182.284l-2.342 4.895-2.352-4.938a1.489 1.489 0 0 0-.133-.221 5.406 5.406 0 0 0 2.482.614zM38 26.395h3a1.5 1.5 0 1 0 0-3h-3a1.5 1.5 0 1 0 0 3zm7 0h3a1.5 1.5 0 1 0 0-3h-3a1.5 1.5 0 1 0 0 3zm7 0h3a1.5 1.5 0 0 0 0-3h-3a1.5 1.5 0 1 0 0 3zm6.904 0h3a1.5 1.5 0 0 0 0-3h-3a1.5 1.5 0 1 0 0 3zM24.181 47.504l-2.121-2.122a1.5 1.5 0 1 0-2.121 2.121l2.121 2.122c.292.293.677.439 1.061.439s.768-.146 1.061-.439a1.5 1.5 0 0 0-.001-2.121zm3.889 7.511a1.5 1.5 0 0 0 1.061-2.56l-2.122-2.122a1.5 1.5 0 1 0-2.121 2.121l2.122 2.122c.293.292.677.439 1.06.439zm3.889.267a1.5 1.5 0 1 0-2.121 2.121l2.122 2.121c.293.293.677.439 1.061.439s.768-.146 1.061-.439a1.5 1.5 0 0 0 0-2.121l-2.123-2.121zm4.883 9.124c.293.293.677.439 1.061.439s.768-.146 1.061-.439a1.5 1.5 0 0 0 0-2.121l-2.122-2.121a1.5 1.5 0 1 0-2.121 2.121l2.121 2.121zm42-19.024l-2.121 2.122a1.5 1.5 0 1 0 2.122 2.121l2.121-2.122a1.5 1.5 0 1 0-2.122-2.121zm-4.949 4.95l-2.121 2.122a1.5 1.5 0 1 0 2.122 2.121l2.121-2.122a1.5 1.5 0 1 0-2.122-2.121zm-6.012 9.632c.385 0 .768-.146 1.061-.439l2.123-2.121a1.5 1.5 0 1 0-2.121-2.121l-2.123 2.121a1.5 1.5 0 0 0 1.06 2.56zm-3.82.2l-2.121 2.121a1.5 1.5 0 1 0 2.122 2.121l2.121-2.121a1.5 1.5 0 1 0-2.122-2.121z"/></svg>