<svg xmlns="http://www.w3.org/2000/svg" xmlns:xlink="http://www.w3.org/1999/xlink" version="1.1" x="0px" y="0px" viewBox="0 0 100 125" style="enable-background:new 0 0 100 100;" xml:space="preserve"><path
  d="M78.9,21.1c-0.8-0.8-2-1.2-3.2-1c-7,1.2-13.4,4.5-18.4,9.6L42.1,44.9c-1,1-1.2,2.6-0.5,3.8l-2.2,2.2c-0.4,0.4-0.4,1,0,1.4  l8.3,8.3c0.2,0.2,0.4,0.3,0.7,0.3s0.5-0.1,0.7-0.3l2.2-2.2c0.5,0.3,1,0.4,1.5,0.4c0.8,0,1.6-0.3,2.2-0.9l15.3-15.3  c5-5,8.3-11.4,9.6-18.4C80.2,23.1,79.8,21.9,78.9,21.1z M48.4,58.5l-6.9-6.9l1.4-1.4l3.5,3.5l3.5,3.5L48.4,58.5z M78,23.9  c-1.2,6.6-4.3,12.6-9,17.3L53.7,56.5c-0.5,0.5-1.2,0.5-1.6,0L43.5,48c-0.5-0.5-0.5-1.2,0-1.6L58.8,31c4.7-4.7,10.7-7.9,17.3-9  c0.1,0,0.2,0,0.3,0c0.4,0,0.8,0.2,1.1,0.5C77.9,22.8,78.1,23.4,78,23.9z M37,58c-0.8-0.8-2-1.2-3.2-1.1c-1.2,0.2-2.2,0.9-2.8,1.9  L20.1,78.5c-0.2,0.4-0.1,0.9,0.2,1.2c0.2,0.2,0.4,0.3,0.7,0.3c0.2,0,0.3,0,0.5-0.1L41.1,69c1.1-0.6,1.7-1.6,1.9-2.8  c0.2-1.2-0.2-2.4-1.1-3.2L37,58z M41.1,65.9c-0.1,0.6-0.4,1-0.9,1.3l-16.6,9.2l9.2-16.6c0.3-0.5,0.8-0.8,1.3-0.9c0.1,0,0.2,0,0.3,0  c0.5,0,0.9,0.2,1.3,0.5l5,5C41,64.8,41.2,65.3,41.1,65.9z M67,28.7c-1.3,0.4-2.7,1.2-3.8,2.4c-1.2,1.2-2,2.5-2.4,3.8  c-0.4,1.5-0.2,2.8,0.6,3.7c0.6,0.6,1.4,0.9,2.2,0.9c1.6,0,3.6-0.9,5.3-2.6c1.2-1.2,2-2.5,2.4-3.8c0.4-1.5,0.2-2.8-0.6-3.7  C69.9,28.4,68.6,28.2,67,28.7z M69.4,32.4c-0.3,1-1,2.1-1.9,3c-1.8,1.8-4,2.5-4.7,1.8c-0.3-0.3-0.3-0.9-0.1-1.7c0.3-1,1-2.1,1.9-3  c0.9-0.9,2-1.6,3-1.9c0.3-0.1,0.6-0.1,0.9-0.1c0.4,0,0.6,0.1,0.8,0.3C69.6,31,69.6,31.6,69.4,32.4z M31.8,48.1  c-1.7-3.2,8.4-14,12.9-16.4c3.1-1.6,6.4-2.2,8.7-1.5c0.1,0,0.2,0.1,0.4,0.2L52.1,32c-1.8-0.3-4.2,0.3-6.5,1.5  c-4.9,2.6-12,11.3-12.1,13.5c0,0,0,0,0,0c0.7,0,2.3-0.5,6.2-2.3c-0.4,0.8-0.7,1.6-0.7,2.5c-2.7,1.2-4.6,1.8-5.7,1.8  c-0.3,0-0.5,0-0.7-0.1C32.2,48.7,31.9,48.4,31.8,48.1z M69.7,46.6c0.7,2.3,0.1,5.6-1.5,8.7c-2.2,4.2-11.5,13.1-15.5,13.1  c-0.3,0-0.6-0.1-0.9-0.2c-0.3-0.1-0.6-0.4-0.8-1c-0.3-1,0.2-3,1.7-6.4c0,0,0,0,0,0c0.9,0,1.7-0.2,2.5-0.7c-1.9,4-2.3,5.6-2.3,6.3  c2.1-0.1,10.9-7.2,13.5-12.1c1.2-2.3,1.8-4.8,1.5-6.5l1.6-1.6C69.6,46.4,69.7,46.5,69.7,46.6z"/>
  </svg>
