<svg xmlns="http://www.w3.org/2000/svg" viewBox="0 0 400 500" x="0px" y="0px"><title>Artboard 1 copy 16</title><g data-name="Immersive experience "><path d="M136.16,66.34a80.33,80.33,0,1,0,80.33,80.33A80.42,80.42,0,0,0,136.16,66.34Zm26.61,56.77a35.78,35.78,0,0,1,3.24,4.27v0q.61.94,1.16,1.92l0,0a35.36,35.36,0,0,1,3.09,7.32v0q.39,1.33.68,2.69l0,0a35.39,35.39,0,0,1,.62,4.15c0,.11,0,.22,0,.33,0,.42.07.84.09,1.27s0,.76,0,1.15c0,.16,0,.32,0,.48v0q0,.89,0,1.77c0,.05,0,.11,0,.16q0,.8-.12,1.59c0,.09,0,.18,0,.28-.05.49-.11,1-.19,1.47l0,.28q-.12.74-.26,1.48l0,.21q-.17.8-.37,1.59v0c-.11.43-.23.85-.36,1.27l-.12.38a35.6,35.6,0,1,1-7.35-34.11ZM136.16,217a70.32,70.32,0,0,1-2.45-140.6v29.89a40.43,40.43,0,1,0,42.43,46.63l0-.26q.12-.81.21-1.64l0-.4q.08-.8.12-1.61c0-.12,0-.23,0-.35,0-.65,0-1.3,0-2v0c0-.09,0-.17,0-.26s0-.08,0-.12h0c0-.47,0-.94,0-1.41s0-.69-.06-1,0-.47-.05-.7,0-.22,0-.34c0-.33-.06-.65-.1-1l0-.26c-.1-.78-.23-1.56-.38-2.33-.07-.35-.14-.7-.22-1s-.18-.82-.28-1.23-.2-.82-.32-1.22-.17-.57-.26-.86A40.35,40.35,0,0,0,168.17,122a40.84,40.84,0,0,0-3.22-3.69,40.35,40.35,0,0,0-26.34-12V76.4A70.13,70.13,0,0,1,187.42,98.6c1.12,1.19,2.2,2.41,3.23,3.68a70.16,70.16,0,0,1,0,88.76c-1,1.27-2.11,2.49-3.23,3.68A70.13,70.13,0,0,1,136.16,217Z"/><polygon points="185.31 192.85 186.84 194.18 189.46 189.97 187.94 188.64 185.31 192.85"/><polygon points="178.83 187.2 180.36 188.53 182.98 184.31 181.45 182.98 178.83 187.2"/><polygon points="172.35 181.54 173.87 182.87 176.5 178.66 174.97 177.33 172.35 181.54"/><polygon points="165.86 175.89 167.39 177.22 170.01 173 168.48 171.67 165.86 175.89"/><polygon points="170.83 119.63 176 115.1 184.88 100.82 179.71 105.34 170.83 119.63"/><path d="M188.12,325.66H145.19v-2.75l-1.71,2.75h-7.64l9.35-15v-3.79l-11.71,18.83h-7.64l19.35-31.13v-3.79l-21.71,34.92h-7.64L142,283.58l2.34.87a2.6,2.6,0,0,0,2.21-.26l42.18-28.1A2.45,2.45,0,0,0,186,252l-41.14,27.41-41-15.25a2.44,2.44,0,0,0-2.2.25L63.82,289.3V238.73a3,3,0,0,0-6,0v89.92a3,3,0,0,0,3,3h127.3a3,3,0,0,0,0-6Zm-74.64,0h-7.64l28-45.09,6.21,2.31ZM63.82,295.16,103,269.4l.31-.2,4.27,1.59L103,278.16V282l6.5-10.45,6.21,2.31L103,294.25V298l14.62-23.52,6.21,2.31L103,310.34v3.79l22.74-36.58,6.21,2.31-28.47,45.81H63.82Z"/><path d="M353.59,108.07H255.73a5,5,0,0,0-3.81,1.77l-28.49,33.61a5,5,0,0,0,0,6.47l28.49,33.61a5,5,0,0,0,3.81,1.77h97.86a5,5,0,0,0,5-5V113.07A5,5,0,0,0,353.59,108.07Zm-5,67.22H258l-24.25-28.61L258,118.07h90.54Z"/><path d="M310.91,236.29H230.24v-1.05a3,3,0,0,0-6,0v93.42a3,3,0,0,0,6,0v-6.61h38.84a2.45,2.45,0,0,0,2.45-2.45v-11a2.45,2.45,0,0,0-2.45-2.45H230.24v-7.39h61.18a2.45,2.45,0,0,0,2.45-2.45v-11a2.45,2.45,0,0,0-2.45-2.45H230.24v-7.39h39.68a2.45,2.45,0,0,0,2.45-2.45V262a2.45,2.45,0,0,0-2.45-2.45H230.24v-7.39h80.68a2.45,2.45,0,0,0,2.45-2.45v-11A2.45,2.45,0,0,0,310.91,236.29Zm-44.29,74.77v6.1H230.24v-6.1ZM289,287.76v6.1H230.24v-6.1Zm-21.5-23.29v6.1H230.24v-6.1Zm41-17.19H230.24v-6.1h78.23Z"/></g><text x="0" y="415" fill="#000000" font-size="5px" font-weight="bold" font-family="'Helvetica Neue', Helvetica, Arial-Unicode, Arial, Sans-serif">Created by Paweł Gleń</text><text x="0" y="420" fill="#000000" font-size="5px" font-weight="bold" font-family="'Helvetica Neue', Helvetica, Arial-Unicode, Arial, Sans-serif">from the Noun Project</text></svg>