<svg xmlns="http://www.w3.org/2000/svg" viewBox="0 0 64 80"><path d="M10 18c0 3.309 2.691 6 6 6s6-2.691 6-6-2.691-6-6-6-6 2.691-6 6zm10 0c0 2.206-1.794 4-4 4s-4-1.794-4-4 1.794-4 4-4 4 1.794 4 4z"/><path d="M30.707 28.707l7-7a.999.999 0 0 0 0-1.414l-3-3a1 1 0 0 0-1.358-.052l-6.884 5.9L19.795 26H8a.995.995 0 0 0-.752.342l-7 8a.998.998 0 0 0-.196.975l3 9a1.002 1.002 0 0 0 1.396.578l4-2A.987.987 0 0 0 9 42.019V59c0 2.757 2.243 5 5 5h8a1 1 0 0 0 1-1V32.618l7.447-3.724a.962.962 0 0 0 .26-.187zM9 41.98a.953.953 0 0 0-.071-.352L7.145 37.17 9 34.851v7.129zm12.553-10.875c-.339.17-.553.516-.553.895v30h-4V46a1 1 0 1 0-2 0v16h-1c-1.654 0-3-1.346-3-3V32a1 1 0 1 0-1.781-.625l-4 5a1.002 1.002 0 0 0-.148.996l1.659 4.146-2.146 1.073-2.454-7.362L8.454 28H20c.135 0 .27-.027.394-.081l7-3c.093-.04.18-.094.257-.16l6.297-5.396L35.586 21l-6.178 6.178-7.855 3.927z"/><path d="M14 32h1v8h2v-8h1v-2h-4zm50 18c0-3.309-2.691-6-6-6a5.998 5.998 0 0 0-5 2.69C51.924 45.07 50.086 44 48 44s-3.924 1.071-5 2.69A5.996 5.996 0 0 0 38 44c-3.309 0-6 2.691-6 6a5.998 5.998 0 0 0 2.69 5A5.996 5.996 0 0 0 32 60v4h2v-4c0-2.206 1.794-4 4-4s4 1.794 4 4v4h2v-4c0-2.206 1.794-4 4-4s4 1.794 4 4v4h2v-4c0-2.206 1.794-4 4-4s4 1.794 4 4v4h2v-4a5.998 5.998 0 0 0-2.69-5A5.998 5.998 0 0 0 64 50zm-16-4c2.206 0 4 1.794 4 4s-1.794 4-4 4-4-1.794-4-4 1.795-4 4-4zm-14 4c0-2.206 1.794-4 4-4s4 1.794 4 4-1.794 4-4 4-4-1.794-4-4zm9 6.69A6.044 6.044 0 0 0 41.31 55 6.044 6.044 0 0 0 43 53.31 6.044 6.044 0 0 0 44.69 55 6.044 6.044 0 0 0 43 56.69zm10 0A6.044 6.044 0 0 0 51.31 55 6.044 6.044 0 0 0 53 53.31 6.044 6.044 0 0 0 54.69 55 6.044 6.044 0 0 0 53 56.69zM58 54c-2.206 0-4-1.794-4-4s1.794-4 4-4 4 1.794 4 4-1.794 4-4 4zm5-54H26a1 1 0 0 0-1 1v19h2V2h35v27c0 1.654-1.346 3-3 3H28v2h31c2.757 0 5-2.243 5-5V1a1 1 0 0 0-1-1z"/><path d="M42 5H32a1 1 0 0 0-1 1v4a1 1 0 0 0 1 1h10a1 1 0 0 0 1-1V9h3v1a1 1 0 0 0 1 1h4v3h-4a1 1 0 0 0-1 1v4a1 1 0 0 0 1 1h4v3h-4a1 1 0 0 0-1 1v4a1 1 0 0 0 1 1h10a1 1 0 0 0 1-1v-4a1 1 0 0 0-1-1h-4v-3h4a1 1 0 0 0 1-1v-4a1 1 0 0 0-1-1h-4v-3h4a1 1 0 0 0 1-1V6a1 1 0 0 0-1-1H47a1 1 0 0 0-1 1v1h-3V6a1 1 0 0 0-1-1zm-1 4h-8V7h8v2zm15 18h-8v-2h8v2zm0-9h-8v-2h8v2zM48 7h8v2h-8V7z"/><path d="M32 13h11v2H32zm7 4h4v2h-4zm1 4h3v2h-3zm-3 4h6v2h-6zM4 10h.5l2.7 3.6a1.002 1.002 0 0 0 1.116.348A.998.998 0 0 0 9 13v-3h6c1.654 0 3-1.346 3-3V3c0-1.654-1.346-3-3-3H4C2.346 0 1 1.346 1 3v4c0 1.654 1.346 3 3 3zM3 3c0-.552.449-1 1-1h11c.551 0 1 .448 1 1v4c0 .552-.449 1-1 1H8a1 1 0 0 0-1 1v1L5.8 8.4A1 1 0 0 0 5 8H4c-.551 0-1-.448-1-1V3z"/><path d="M5 4h9v2H5z"/><text y="79" font-size="5" font-weight="bold" font-family="'Helvetica Neue', Helvetica, Arial-Unicode, Arial, Sans-serif">Created by Becris</text><text y="84" font-size="5" font-weight="bold" font-family="'Helvetica Neue', Helvetica, Arial-Unicode, Arial, Sans-serif">from the Noun Project</text></svg>