<svg xmlns="http://www.w3.org/2000/svg" viewBox="0 0 400 500" x="0px" y="0px"><title>Artboard 1 copy 18</title><g data-name="Immersive experience "><path d="M153.12,217.35a12.59,12.59,0,0,0,12.31-9.21l2.69-9.14a6.83,6.83,0,0,1,10.72-3.48l7.55,5.81a12.83,12.83,0,0,0,19.92-14.47l-3.19-9a6.83,6.83,0,0,1,6.63-9.12l9.52.26a12.83,12.83,0,0,0,7.61-23.42L219,140.23A6.83,6.83,0,0,1,219,129l7.86-5.38a12.83,12.83,0,0,0-7.61-23.42l-9.52.26a6.83,6.83,0,0,1-6.63-9.12l3.19-9a12.83,12.83,0,0,0-19.92-14.47l-7.55,5.81a6.83,6.83,0,0,1-10.72-3.48L165.43,61a12.83,12.83,0,0,0-24.62,0l-2.69,9.14a6.83,6.83,0,0,1-10.72,3.48l-7.55-5.81A12.83,12.83,0,0,0,99.93,82.33l3.19,9a6.83,6.83,0,0,1-6.63,9.12L87,100.16a12.83,12.83,0,0,0-7.61,23.42L87.22,129a6.83,6.83,0,0,1,0,11.27l-7.86,5.38A12.83,12.83,0,0,0,87,169l9.52-.26a6.83,6.83,0,0,1,6.63,9.12l-3.19,9a12.83,12.83,0,0,0,19.92,14.47l7.55-5.81A6.83,6.83,0,0,1,138.12,199l2.69,9.14A12.59,12.59,0,0,0,153.12,217.35Zm-21.56-29.25a12.83,12.83,0,0,0-7.83,2.66l-7.55,5.81a6.83,6.83,0,0,1-10.61-7.71l3.19-9a12.83,12.83,0,0,0-12.45-17.13l-9.52.26a6.83,6.83,0,0,1-4.05-12.47l7.86-5.38a12.83,12.83,0,0,0,0-21.17l-7.86-5.38a6.83,6.83,0,0,1,4.05-12.47l9.52.26a12.83,12.83,0,0,0,12.45-17.13l-3.19-9a6.83,6.83,0,0,1,10.61-7.71l7.55,5.81a12.83,12.83,0,0,0,20.14-6.54l2.69-9.14a6.83,6.83,0,0,1,13.11,0l2.69,9.14a12.83,12.83,0,0,0,20.14,6.54L190,72.61a6.83,6.83,0,0,1,10.61,7.71l-3.19,9a12.83,12.83,0,0,0,12.45,17.13l9.52-.26a6.83,6.83,0,0,1,4.05,12.47L215.62,124a12.83,12.83,0,0,0,0,21.17l7.86,5.38A6.83,6.83,0,0,1,219.43,163l-9.52-.26a12.83,12.83,0,0,0-12.45,17.13l3.19,9A6.83,6.83,0,0,1,190,196.58l-7.55-5.81a12.83,12.83,0,0,0-20.14,6.54l-2.69,9.14a6.83,6.83,0,0,1-13.11,0l-2.69-9.14a12.84,12.84,0,0,0-12.31-9.21Z"/><path d="M191.46,134.6a38.34,38.34,0,1,0-38.34,38.34A38.39,38.39,0,0,0,191.46,134.6Zm-66.69,0a28.34,28.34,0,1,1,28.34,28.34A28.38,28.38,0,0,1,124.77,134.6Z"/><path d="M319.52,204.68l-11.09-3.27a3.37,3.37,0,0,1-1.72-5.29l7.05-9.17a9.37,9.37,0,0,0-10.57-14.54l-10.9,3.88a3.37,3.37,0,0,1-4.5-3.27l.32-11.56a9.37,9.37,0,0,0-17.1-5.55l-6.54,9.54a3.37,3.37,0,0,1-5.56,0l-6.54-9.54a9.37,9.37,0,0,0-17.1,5.55l.32,11.56a3.37,3.37,0,0,1-4.5,3.27l-10.9-3.88A9.37,9.37,0,0,0,209.66,187l7.05,9.17a3.37,3.37,0,0,1-1.72,5.29l-11.09,3.27a9.37,9.37,0,0,0,0,18L215,225.92a3.37,3.37,0,0,1,1.72,5.29l-7.05,9.16a9.37,9.37,0,0,0,10.56,14.54L231.12,251a3.37,3.37,0,0,1,4.5,3.27l-.32,11.56a9.19,9.19,0,0,0,6.47,9.17,9.7,9.7,0,0,0,3,.48,9.18,9.18,0,0,0,7.62-4.1l6.54-9.54a3.37,3.37,0,0,1,5.56,0l6.54,9.54a9.37,9.37,0,0,0,17.1-5.55l-.32-11.56a3.37,3.37,0,0,1,4.5-3.27l10.9,3.88a9.37,9.37,0,0,0,10.57-14.54l-7.05-9.16a3.37,3.37,0,0,1,1.72-5.29l11.09-3.27a9.37,9.37,0,0,0,0-18Zm-1.7,12.22-11.09,3.27a9.37,9.37,0,0,0-4.78,14.7L309,244a3.37,3.37,0,0,1-3.8,5.23l-10.9-3.88a9.37,9.37,0,0,0-12.51,9.09l.32,11.56a3.37,3.37,0,0,1-6.15,2l-6.54-9.54a9.37,9.37,0,0,0-15.46,0L247.44,268a3.37,3.37,0,0,1-6.15-2l.32-11.56a9.37,9.37,0,0,0-12.51-9.08l-10.9,3.88a3.37,3.37,0,0,1-3.8-5.23l7.05-9.16a9.37,9.37,0,0,0-4.78-14.7L205.6,216.9a3.37,3.37,0,0,1,0-6.46l11.09-3.27a9.37,9.37,0,0,0,4.78-14.7l-7.05-9.17a3.37,3.37,0,0,1,3.8-5.23l10.9,3.88a9.37,9.37,0,0,0,12.51-9.09l-.32-11.56a3.37,3.37,0,0,1,6.15-2l6.54,9.54a9.37,9.37,0,0,0,7.73,4.07h0a9.36,9.36,0,0,0,7.73-4.07L276,159.3a3.37,3.37,0,0,1,6.15,2l-.32,11.56a9.37,9.37,0,0,0,12.51,9.09l10.9-3.88a3.37,3.37,0,0,1,3.8,5.23L302,192.46a9.37,9.37,0,0,0,4.78,14.7l11.09,3.27a3.37,3.37,0,0,1,0,6.46Z"/><path d="M261.71,195.39A18.28,18.28,0,1,0,280,213.67,18.3,18.3,0,0,0,261.71,195.39Zm0,26.56a8.28,8.28,0,1,1,8.28-8.28A8.29,8.29,0,0,1,261.71,221.95Z"/><path d="M238,281.21,228.63,280a3.21,3.21,0,0,1-2.4-4.71l4.52-8.3A7.21,7.21,0,0,0,221,257.2l-8.3,4.52a3.21,3.21,0,0,1-4.71-2.4l-1.22-9.37a7.21,7.21,0,0,0-13.66-2.16L189,256.32a3.21,3.21,0,0,1-5.23.83l-6.5-6.87A7.21,7.21,0,0,0,165,256.56l1.74,9.29a3.21,3.21,0,0,1-3.74,3.74l-9.29-1.74a7.21,7.21,0,0,0-6.28,12.32l6.87,6.5a3.21,3.21,0,0,1-.83,5.23L144.91,296a7.21,7.21,0,0,0,2.16,13.66l9.38,1.22a3.21,3.21,0,0,1,2.4,4.71l-4.52,8.3a7.21,7.21,0,0,0,9.78,9.78l8.3-4.52a3.21,3.21,0,0,1,4.71,2.4l1.22,9.38a7.07,7.07,0,0,0,6,6.19,7.63,7.63,0,0,0,1.2.1A7,7,0,0,0,192,343L196,334.5a3.21,3.21,0,0,1,5.23-.83l6.5,6.87a7.21,7.21,0,0,0,12.32-6.28L218.35,325a3.21,3.21,0,0,1,3.74-3.74l9.29,1.74a7.21,7.21,0,0,0,6.28-12.32l-6.87-6.5a3.21,3.21,0,0,1,.83-5.23l8.54-4.06A7.21,7.21,0,0,0,238,281.21Zm.45,10-8.54,4.06A7.21,7.21,0,0,0,228,307.06l6.87,6.5a3.21,3.21,0,0,1-2.79,5.48l-9.29-1.74a7.21,7.21,0,0,0-8.41,8.41l1.74,9.29a3.21,3.21,0,0,1-5.48,2.79l-6.5-6.87a7.21,7.21,0,0,0-11.75,1.86l-4.06,8.54a3.21,3.21,0,0,1-6.08-1L181.08,331a7.21,7.21,0,0,0-10.59-5.4l-8.3,4.52a3.21,3.21,0,0,1-4.35-4.35l4.52-8.3a7.21,7.21,0,0,0-5.4-10.59l-9.37-1.22a3.21,3.21,0,0,1-1-6.08l8.54-4.06A7.21,7.21,0,0,0,157,283.77l-6.87-6.5a3.21,3.21,0,0,1,2.79-5.48l9.29,1.74a7.21,7.21,0,0,0,8.41-8.41l-1.74-9.29a3.21,3.21,0,0,1,5.48-2.79l6.5,6.87A7.21,7.21,0,0,0,192.64,258l4.06-8.54a3.21,3.21,0,0,1,6.08,1l1.22,9.37a7.21,7.21,0,0,0,10.59,5.4l8.3-4.52a3.21,3.21,0,0,1,4.35,4.35l-4.52,8.3a7.21,7.21,0,0,0,5.4,10.59l9.38,1.22a3.21,3.21,0,0,1,1,6.08Z"/><path d="M182.74,285.62a13.85,13.85,0,1,0,19.59,0A13.87,13.87,0,0,0,182.74,285.62ZM198.09,301a7.85,7.85,0,1,1,0-11.11A7.87,7.87,0,0,1,198.09,301Z"/></g><text x="0" y="415" fill="#000000" font-size="5px" font-weight="bold" font-family="'Helvetica Neue', Helvetica, Arial-Unicode, Arial, Sans-serif">Created by Paweł Gleń</text><text x="0" y="420" fill="#000000" font-size="5px" font-weight="bold" font-family="'Helvetica Neue', Helvetica, Arial-Unicode, Arial, Sans-serif">from the Noun Project</text></svg>