<svg xmlns="http://www.w3.org/2000/svg" xmlns:xlink="http://www.w3.org/1999/xlink" version="1.1" x="0px" y="0px" viewBox="0 0 100 125" enable-background="new 0 0 100 100" xml:space="preserve">

  <g><path
    d="M68.191,73.58c-0.77-0.298-1.641,0.085-1.939,0.857s0.084,1.642,0.857,1.94c3.059,1.185,3.875,2.354,3.875,2.857   c0,1.822-7.406,5.37-20.984,5.37c-13.579,0-20.986-3.548-20.986-5.37c0-0.504,0.816-1.673,3.876-2.857   c0.772-0.299,1.156-1.168,0.857-1.94c-0.299-0.772-1.169-1.155-1.94-0.857c-4.788,1.854-5.793,4.099-5.793,5.655   c0,5.495,12.066,8.37,23.986,8.37c11.918,0,23.984-2.875,23.984-8.37C73.984,77.679,72.98,75.435,68.191,73.58z"/><path
    d="M57.619,66.491c-0.158-0.071-0.324-0.107-0.488-0.121c-0.719-0.276-1.539,0.027-1.885,0.732l-4.793,9.773l-4.932-9.956   c-0.341-0.688-1.139-0.992-1.847-0.739c-0.146,0.008-0.292,0.031-0.436,0.084l-3.364,1.248c-2.657,0.985-4.373,3.445-4.373,6.268   v5.448c0,0.829,0.671,1.5,1.5,1.5s1.5-0.671,1.5-1.5V73.78c0-1.578,0.926-2.902,2.416-3.455l2.486-0.922l5.583,11.268   c0.262,0.529,0.793,0.835,1.346,0.835c0.068,0,0.137-0.014,0.205-0.023c0.02,0.001,0.039,0.007,0.06,0.007   c0.553,0,1.086-0.309,1.348-0.84l5.393-10.995l1.652,0.745c1.596,0.721,2.512,1.994,2.512,3.495v5.447c0,0.829,0.67,1.5,1.5,1.5   c0.828,0,1.5-0.671,1.5-1.5v-5.447c0-2.692-1.6-5.021-4.277-6.229L57.619,66.491z"/><path
    d="M41.923,53.94c-0.845,0.671-1.38,1.885-1.38,3.277c0,1.563,0.665,2.871,1.662,3.474c1.333,3.962,4.568,6.571,8.254,6.571   c3.704,0,6.952-2.633,8.272-6.625c0.953-0.626,1.574-1.906,1.574-3.42c0-1.346-0.496-2.525-1.295-3.209   c-0.078-0.329-0.174-0.648-0.277-0.962c-0.014-0.039-0.025-0.077-0.041-0.116c-1.332-3.872-4.58-6.535-8.233-6.535   C46.497,46.396,43.001,49.528,41.923,53.94z M57.104,58.092c-0.516,0.138-0.924,0.542-1.063,1.067   c-0.803,3.053-3.045,5.104-5.583,5.104c-2.535,0-4.777-2.049-5.582-5.098c-0.146-0.555-0.593-0.971-1.141-1.086   c-0.083-0.138-0.193-0.439-0.193-0.861c0-0.072,0.008-0.133,0.014-0.197c2.176,0.26,4.65-0.928,6.563-1.893   c0.254,0.533,0.688,1.006,1.281,1.354c0.664,0.392,1.465,0.601,2.309,0.601c1.01,0,2.082-0.307,3.059-0.951   c0.098,0.073,0.203,0.136,0.318,0.185c0.082,0.112,0.219,0.433,0.219,0.901C57.305,57.653,57.188,57.96,57.104,58.092z    M50.458,49.396c2.159,0,4.118,1.535,5.137,3.844c-0.695,0.691-1.41,0.834-1.82,0.844c-0.418,0.012-0.705-0.098-0.855-0.187   c0.461-1.085-0.039-1.757-0.285-2.002c-0.932-0.927-2.01-0.383-3.644,0.442c-1.01,0.51-2.635,1.324-3.951,1.617   C45.946,51.251,48.085,49.396,50.458,49.396z"/><path
    d="M42.467,35.477c0-0.698-0.257-1.741-1.479-2.745c-0.641-0.525-1.584-0.433-2.111,0.207   c-0.526,0.641-0.433,1.586,0.207,2.111c0.316,0.26,0.377,0.418,0.384,0.418c-0.185,0.809-4.292,2.928-12.484,2.928   c-8.201,0-12.308-2.123-12.486-2.902c0-0.002,0.062-0.217,0.547-0.568c0.67-0.486,0.82-1.424,0.333-2.095   c-0.486-0.671-1.424-0.821-2.095-0.333c-1.474,1.07-1.784,2.211-1.784,2.979c0,4.066,8.027,5.919,15.484,5.919   C34.441,41.396,42.467,39.543,42.467,35.477z"/><path
    d="M19,35.382c0.829,0,1.5-0.672,1.5-1.5v-3.388c0-0.75,0.423-1.354,1.132-1.618l1.089-0.403l3.113,6.537   c0.257,0.54,0.794,0.855,1.355,0.855c0.042,0,0.085-0.011,0.128-0.015c0.012,0.001,0.024,0.004,0.036,0.004   c0.56,0,1.097-0.314,1.354-0.853l3.031-6.335l0.534,0.242c0.458,0.206,1.227,0.695,1.227,1.655v3.388c0,0.828,0.671,1.5,1.5,1.5   s1.5-0.672,1.5-1.5v-3.388c0-1.904-1.12-3.546-2.994-4.391l-1.618-0.73c-0.241-0.108-0.493-0.142-0.739-0.121   c-0.179-0.022-0.356-0.012-0.527,0.029c0.997-0.758,1.797-1.851,2.271-3.181c0.653-0.521,1.068-1.428,1.068-2.479   c0-0.925-0.326-1.752-0.862-2.293c-0.767-2.935-3.137-5.005-5.829-5.005c-2.669,0-5.026,2.04-5.812,4.938   c-0.575,0.533-0.922,1.382-0.922,2.359c0,1.086,0.442,2.013,1.127,2.524c0.463,1.273,1.227,2.326,2.175,3.072   c-0.06-0.012-0.121-0.016-0.182-0.02c-0.308-0.099-0.647-0.104-0.973,0.019l-2.093,0.775c-1.876,0.696-3.089,2.436-3.089,4.431   v3.388C17.5,34.71,18.171,35.382,19,35.382z M23.535,19.692c0-0.055,0.005-0.102,0.011-0.14c0.371-0.219,0.636-0.59,0.715-1.026   c0.327-1.814,1.592-3.132,3.008-3.132c1.419,0,2.685,1.321,3.009,3.142c0.074,0.417,0.32,0.777,0.667,1   c0.008,0.041,0.014,0.094,0.014,0.156c0,0.043-0.003,0.081-0.007,0.113c-0.369,0.191-0.65,0.532-0.76,0.95   c-0.433,1.646-1.607,2.751-2.923,2.751c-1.315,0-2.49-1.104-2.922-2.748c-0.115-0.437-0.417-0.786-0.807-0.972   C23.537,19.759,23.535,19.728,23.535,19.692z M27.269,26.507c0.897,0,1.751-0.229,2.525-0.634c-0.068,0.087-0.13,0.18-0.18,0.284   l-2.342,4.895l-2.352-4.938c-0.038-0.08-0.085-0.151-0.134-0.221C25.549,26.284,26.388,26.507,27.269,26.507z"/><path
    d="M87.02,32.731c-0.641-0.525-1.584-0.433-2.111,0.207c-0.525,0.641-0.432,1.586,0.207,2.111   c0.316,0.26,0.377,0.418,0.385,0.418c-0.186,0.809-4.293,2.928-12.484,2.928c-8.201,0-12.309-2.123-12.484-2.902   c0-0.002,0.061-0.217,0.547-0.568c0.67-0.486,0.818-1.424,0.332-2.095c-0.486-0.669-1.424-0.819-2.094-0.333   c-1.475,1.069-1.785,2.211-1.785,2.979c0,4.066,8.027,5.919,15.484,5.919S88.5,39.543,88.5,35.477   C88.5,34.778,88.242,33.736,87.02,32.731z"/><path
    d="M65.031,35.382c0.83,0,1.5-0.672,1.5-1.5v-3.388c0-0.75,0.424-1.354,1.133-1.618l1.09-0.403l3.113,6.537   c0.256,0.54,0.795,0.855,1.355,0.855c0.041,0,0.084-0.011,0.127-0.015c0.012,0.001,0.023,0.004,0.035,0.004   c0.561,0,1.098-0.314,1.355-0.853l3.031-6.334l0.533,0.241c0.459,0.206,1.227,0.695,1.227,1.655v3.388c0,0.828,0.672,1.5,1.5,1.5   c0.83,0,1.5-0.672,1.5-1.5v-3.388c0-1.904-1.119-3.546-2.994-4.391l-1.617-0.73c-0.24-0.108-0.494-0.142-0.738-0.121   c-0.18-0.022-0.357-0.012-0.529,0.029c0.998-0.758,1.797-1.851,2.271-3.18c0.654-0.521,1.068-1.429,1.068-2.479   c0-0.925-0.326-1.752-0.863-2.293c-0.766-2.935-3.137-5.005-5.828-5.005c-2.67,0-5.025,2.04-5.811,4.938   c-0.576,0.533-0.924,1.381-0.924,2.359c0,1.086,0.443,2.013,1.127,2.524c0.465,1.273,1.227,2.325,2.176,3.072   c-0.061-0.012-0.121-0.016-0.182-0.02c-0.309-0.099-0.648-0.104-0.973,0.019l-2.094,0.775c-1.877,0.696-3.09,2.436-3.09,4.431   v3.388C63.531,34.71,64.203,35.382,65.031,35.382z M69.566,19.692c0-0.055,0.006-0.102,0.012-0.14   c0.371-0.218,0.637-0.59,0.715-1.026c0.328-1.814,1.592-3.132,3.008-3.132c1.42,0,2.686,1.321,3.01,3.142   c0.074,0.417,0.32,0.777,0.668,1c0.008,0.041,0.014,0.094,0.014,0.156c0,0.043-0.002,0.081-0.008,0.113   c-0.369,0.191-0.65,0.532-0.76,0.95c-0.434,1.646-1.607,2.751-2.924,2.751c-1.314,0-2.49-1.104-2.922-2.748   c-0.115-0.437-0.416-0.786-0.807-0.972C69.568,19.759,69.566,19.728,69.566,19.692z M73.301,26.507   c0.898,0,1.752-0.229,2.527-0.634c-0.07,0.086-0.133,0.18-0.182,0.284l-2.342,4.895l-2.352-4.938   c-0.037-0.079-0.084-0.151-0.133-0.221C71.582,26.285,72.42,26.507,73.301,26.507z"/><path d="M38,26.395h3c0.829,0,1.5-0.672,1.5-1.5c0-0.829-0.671-1.5-1.5-1.5h-3c-0.829,0-1.5,0.671-1.5,1.5   C36.5,25.723,37.171,26.395,38,26.395z"/><path d="M45,26.395h3c0.829,0,1.5-0.672,1.5-1.5c0-0.829-0.671-1.5-1.5-1.5h-3c-0.829,0-1.5,0.671-1.5,1.5   C43.5,25.723,44.171,26.395,45,26.395z"/><path d="M52,26.395h3c0.828,0,1.5-0.672,1.5-1.5c0-0.829-0.672-1.5-1.5-1.5h-3c-0.83,0-1.5,0.671-1.5,1.5   C50.5,25.723,51.17,26.395,52,26.395z"/><path d="M58.904,26.395h3c0.828,0,1.5-0.672,1.5-1.5c0-0.829-0.672-1.5-1.5-1.5h-3c-0.83,0-1.5,0.671-1.5,1.5   C57.404,25.723,58.074,26.395,58.904,26.395z"/><path d="M24.181,47.504l-2.121-2.122c-0.585-0.586-1.535-0.586-2.121,0s-0.586,1.535,0,2.121l2.121,2.122   c0.292,0.293,0.677,0.439,1.061,0.439s0.768-0.146,1.061-0.439C24.767,49.04,24.767,48.09,24.181,47.504z"/><path d="M28.07,55.015c0.384,0,0.768-0.146,1.061-0.439c0.586-0.586,0.586-1.536,0-2.121l-2.122-2.122   c-0.586-0.586-1.535-0.586-2.121,0s-0.586,1.536,0,2.121l2.122,2.122C27.303,54.868,27.687,55.015,28.07,55.015z"/><path d="M31.959,55.282c-0.586-0.586-1.535-0.586-2.121,0c-0.586,0.585-0.586,1.535,0,2.121l2.122,2.121   c0.293,0.293,0.677,0.439,1.061,0.439s0.768-0.146,1.061-0.439c0.586-0.586,0.586-1.535,0-2.121L31.959,55.282z"/><path d="M36.842,64.406c0.293,0.293,0.677,0.439,1.061,0.439s0.768-0.146,1.061-0.439c0.586-0.586,0.586-1.536,0-2.121   l-2.122-2.121c-0.586-0.586-1.536-0.586-2.121,0c-0.586,0.586-0.586,1.536,0,2.121L36.842,64.406z"/><path d="M78.842,45.382l-2.121,2.122c-0.586,0.585-0.586,1.535,0,2.121c0.291,0.293,0.676,0.439,1.061,0.439   c0.383,0,0.768-0.146,1.061-0.439l2.121-2.122c0.586-0.585,0.586-1.535,0-2.121C80.379,44.796,79.428,44.796,78.842,45.382z"/><path d="M73.893,50.332l-2.121,2.122c-0.586,0.585-0.586,1.535,0,2.121c0.293,0.293,0.676,0.439,1.061,0.439   c0.383,0,0.768-0.146,1.061-0.439l2.121-2.122c0.586-0.585,0.586-1.535,0-2.121S74.479,49.746,73.893,50.332z"/><path d="M67.881,59.964c0.385,0,0.768-0.146,1.061-0.439l2.123-2.121c0.586-0.586,0.586-1.536,0-2.121   c-0.586-0.586-1.535-0.586-2.121,0l-2.123,2.121c-0.586,0.586-0.586,1.535,0,2.121C67.113,59.817,67.498,59.964,67.881,59.964z"/><path d="M64.061,60.164l-2.121,2.121c-0.586,0.585-0.586,1.535,0,2.121c0.293,0.293,0.676,0.439,1.061,0.439   c0.383,0,0.768-0.146,1.061-0.439l2.121-2.121c0.586-0.585,0.586-1.535,0-2.121S64.646,59.578,64.061,60.164z"/></g>
</svg>
