<svg xmlns="http://www.w3.org/2000/svg" viewBox="0 0 100 125"><path d="M57.7 55.5H11V25.1h59.4v1.5c0 .3.2.5.5.5s.5-.2.5-.5v-7.1c0-.3-.2-.5-.5-.5h-4.5c-.3 0-.5.2-.5.5s.2.5.5.5h4v4H11v-4h49.3c.3 0 .5-.2.5-.5s-.2-.5-.5-.5H10.4c-.3 0-.5.2-.5.5V56c0 .3.2.5.5.5h47.3c.3 0 .5-.2.5-.5s-.2-.5-.5-.5z"/><path d="M62.4 18.9c-.3 0-.5.2-.5.5s.2.5.5.5h1.9c.3 0 .5-.2.5-.5s-.2-.5-.5-.5h-1.9zM43.6 65.7c0-1.6-1.3-2.9-2.9-2.9-1.6 0-2.9 1.3-2.9 2.9 0 1.6 1.3 2.9 2.9 2.9 1.6-.1 2.9-1.3 2.9-2.9zm-4.7 0c0-1 .8-1.8 1.8-1.8s1.8.8 1.8 1.8-.8 1.8-1.8 1.8-1.8-.8-1.8-1.8zm-19.4 4.9h-2.6c-.3 0-.5.2-.5.5s.2.5.5.5h2.6c.3 0 .5-.2.5-.5.1-.2-.2-.5-.5-.5zm38.2 0H22.1c-.3 0-.5.2-.5.5s.2.5.5.5H32L30.4 82h-3.5c-.8 0-1.5.7-1.5 1.5s.7 1.5 1.5 1.5h26.6c.8 0 1.5-.7 1.5-1.5s-.7-1.5-1.5-1.5H50l-.8-5.1c0-.3-.3-.5-.6-.5s-.5.3-.5.6l.8 5H31.5l1.7-10.3h14.1l.5 3.1c0 .3.3.5.5.5h.1c.3 0 .5-.3.5-.6l-.5-2.9h9.4c.3 0 .5-.2.5-.5-.1-.4-.3-.7-.6-.7zm-3.8 12.9c0 .2-.2.4-.4.4H26.9c-.2 0-.4-.2-.4-.4s.2-.4.4-.4h26.6c.2 0 .4.2.4.4z"/><path d="M57.7 59.2H6.8V20.7c0-2.5 2.1-4.6 4.6-4.6H70c2.5 0 4.6 2.1 4.6 4.6v5.8c0 .3.2.5.5.5s.5-.2.5-.5v-5.8c0-3.1-2.6-5.7-5.7-5.7H11.4c-3.1 0-5.7 2.6-5.7 5.7V66c0 3.1 2.6 5.7 5.7 5.7h2.8c.3 0 .5-.2.5-.5s-.2-.5-.5-.5h-2.8c-2.5 0-4.6-2.1-4.6-4.6v-5.7h50.9c.3 0 .5-.2.5-.5 0-.5-.2-.7-.5-.7zM93.8 50c-.3 0-.5.2-.5.5v2.1c0 .3.2.5.5.5s.5-.2.5-.5v-2.1c0-.2-.2-.5-.5-.5z"/><path d="M92.1 42.5H71c-1.2 0-2.2 1-2.2 2.2v22.5c0 1.2 1 2.2 2.2 2.2h21.1c1.2 0 2.2-1 2.2-2.2V54.8c0-.3-.2-.5-.5-.5s-.5.2-.5.5v12.5c0 .6-.5 1.1-1.1 1.1H71c-.6 0-1.1-.5-1.1-1.1V44.7c0-.6.5-1.1 1.1-1.1h21.1c.6 0 1.1.5 1.1 1.1v3.9c0 .3.2.5.5.5s.5-.2.5-.5v-3.9c.1-1.2-.9-2.2-2.1-2.2z"/><path d="M90 70.3c-.3 0-.5.2-.5.5v9.4c0 2-1.6 3.6-3.6 3.6H65.2c-2 0-3.6-1.6-3.6-3.6V32.9c0-2 1.6-3.6 3.6-3.6h20.7c2 0 3.6 1.6 3.6 3.6V41c0 .3.2.5.5.5s.5-.2.5-.5v-8.1c0-2.6-2.1-4.7-4.7-4.7H65.2c-2.6 0-4.7 2.1-4.7 4.7v47.3c0 2.6 2.1 4.7 4.7 4.7h20.7c2.6 0 4.7-2.1 4.7-4.7v-9.4c-.1-.2-.3-.5-.6-.5z"/><path d="M77.9 37.2c.3 0 .5-.2.5-.5s-.2-.5-.5-.5H63.1c-.3 0-.5.2-.5.5V75c0 .3.2.5.5.5h24.8c.3 0 .5-.2.5-.5v-4.1c0-.3-.2-.5-.5-.5s-.5.2-.5.5v3.6H63.6V37.2h14.3zm1.7 0h1.6c.3 0 .5-.2.5-.5s-.2-.5-.5-.5h-1.6c-.3 0-.5.2-.5.5-.1.2.2.5.5.5zm8.3 4.4c.3 0 .5-.2.5-.5v-4.4c0-.3-.2-.5-.5-.5h-5.1c-.3 0-.5.2-.5.5s.2.5.5.5h4.5v3.9c.1.3.3.5.6.5zM81 32.8c0-.3-.2-.5-.5-.5h-7.9c-.3 0-.5.2-.5.5s.2.5.5.5h7.9c.3 0 .5-.2.5-.5zm-10.1.3c.1-.1.2-.2.2-.4s-.1-.3-.2-.4c-.2-.2-.6-.2-.8 0-.1.2-.1.3-.1.5s.1.3.2.4c.1.1.2.2.4.2l.3-.3zm1.8 46.5c0 1.6 1.3 2.8 2.8 2.8s2.8-1.3 2.8-2.8-1.3-2.8-2.8-2.8-2.8 1.3-2.8 2.8zm4.5 0c0 1-.8 1.7-1.7 1.7s-1.7-.8-1.7-1.7.8-1.7 1.7-1.7 1.7.8 1.7 1.7z"/><path d="M90.6 57.8c.5 0 .8-.4.8-.9v-1.8c0-.5-.4-.9-.8-.9l-2-.2-.6-1.5 1.2-1.6c.1-.2.2-.4.2-.6 0-.2-.1-.5-.3-.7l-1.2-1.2c-.3-.4-.9-.4-1.2-.1l-1.6 1.2c-.5-.3-1-.5-1.5-.6l-.2-2c0-.5-.4-.8-.9-.8h-1.8c-.5 0-.9.4-.9.8l-.2 2-1.5.6-1.6-1.2c-.2-.2-.4-.2-.6-.2-.2 0-.4.1-.6.3l-1.2 1.2c-.2.2-.3.4-.3.7 0 .2.1.4.2.6l1.2 1.6c-.3.5-.5 1-.6 1.5l-2 .2c-.5 0-.8.4-.8.9v1.8c0 .5.4.9.8.9l2 .2.6 1.5-1.2 1.6c-.1.2-.2.4-.2.6 0 .2.1.5.3.7l1.2 1.2c.2.2.4.3.6.3h.1c.2 0 .4-.1.6-.2l1.6-1.2c.5.3 1 .5 1.5.6l.2 2c0 .5.4.8.9.8h1.8c.5 0 .9-.4.9-.8l.2-2 1.5-.6 1.6 1.2c.2.1.4.2.6.2.2 0 .5-.1.7-.3l1.2-1.2c.2-.2.3-.4.3-.7 0-.2-.1-.4-.2-.6L88 59.6c.3-.5.5-1 .6-1.5l2-.3zm-1.8-2.7l1.5.2v1.5l-1.5.2c0-.3.1-.6.1-.9 0-.4 0-.7-.1-1zm-14.6 1.8l-1.5-.2v-1.5l1.5-.2c0 .3-.1.6-.1.9 0 .4.1.7.1 1zm13-7.6l1 1-.9 1.2c-.3-.5-.8-.9-1.3-1.3l1.2-.9zm-6.4-2.1h1.5l.2 1.5c-.3 0-.6-.1-.9-.1-.3 0-.6 0-.9.1l.1-1.5zm-6 3.1l1-1 1.2.9c-.5.4-.9.8-1.3 1.3l-.9-1.2zm1 12.5l-1-1 .9-1.2c.4.5.8.9 1.3 1.3l-1.2.9zm6.4 2h-1.5l-.2-1.5c.3 0 .6.1.9.1.3 0 .6 0 .9-.1l-.1 1.5zm-.7-2.5c-3.5 0-6.3-2.8-6.3-6.3s2.8-6.3 6.3-6.3 6.3 2.8 6.3 6.3-2.8 6.3-6.3 6.3zm6.8-.6l-1 1-1.3-.9c.5-.4.9-.8 1.3-1.3l1 1.2z"/><path d="M81.5 52.2c-2.1 0-3.8 1.7-3.8 3.8 0 2.1 1.7 3.8 3.8 3.8 2.1 0 3.8-1.7 3.8-3.8.1-2.1-1.7-3.8-3.8-3.8zm0 6.5c-1.5 0-2.7-1.2-2.7-2.7 0-1.5 1.2-2.7 2.7-2.7 1.5 0 2.7 1.2 2.7 2.7 0 1.5-1.2 2.7-2.7 2.7zM24.7 41.6h-6c-1.1 0-2 .9-2 2v6.9c0 1.1.9 2 2 2h6c1.1 0 2-.9 2-2v-2.2c0-.3-.2-.5-.5-.5s-.5.2-.5.5v2.2c0 .5-.4.9-.9.9h-6c-.5 0-.9-.4-.9-.9v-6.9c0-.5.4-.9.9-.9h6c.5 0 .9.4.9.9 0 .3.2.5.5.5s.5-.2.5-.5c0-1.1-.9-2-2-2z"/><path d="M26.1 44.8c-.3 0-.5.2-.5.5v1.3c0 .3.2.5.5.5s.5-.2.5-.5v-1.3c.1-.3-.2-.5-.5-.5zM38 41.6h-6c-1.1 0-2 .9-2 2v6.9c0 1.1.9 2 2 2h6c1.1 0 2-.9 2-2v-2.2c0-.3-.2-.5-.5-.5s-.5.2-.5.5v2.2c0 .5-.4.9-.9.9h-6c-.5 0-.9-.4-.9-.9v-6.9c0-.5.4-.9.9-.9h6c.5 0 .9.4.9.9 0 .3.2.5.5.5s.5-.2.5-.5c0-1.1-.9-2-2-2z"/><path d="M39.5 44.8c-.3 0-.5.2-.5.5v1.3c0 .3.2.5.5.5s.5-.2.5-.5v-1.3c0-.3-.2-.5-.5-.5zm11.8-3.2h-6c-1.1 0-2 .9-2 2v6.9c0 1.1.9 2 2 2h6c1.1 0 2-.9 2-2v-2.2c0-.3-.2-.5-.5-.5s-.5.2-.5.5v2.2c0 .5-.4.9-.9.9h-6c-.5 0-.9-.4-.9-.9v-6.9c0-.5.4-.9.9-.9h6c.5 0 .9.4.9.9 0 .3.2.5.5.5s.5-.2.5-.5c0-1.1-.9-2-2-2z"/><path d="M52.8 44.8c-.3 0-.5.2-.5.5v1.3c0 .3.2.5.5.5s.5-.2.5-.5v-1.3c0-.3-.2-.5-.5-.5zM24.7 28.3h-6c-1.1 0-2 .9-2 2v6.9c0 1.1.9 2 2 2h6c1.1 0 2-.9 2-2V35c0-.3-.2-.5-.5-.5s-.5.2-.5.5v2.2c0 .5-.4.9-.9.9h-6c-.5 0-.9-.4-.9-.9v-6.9c0-.5.4-.9.9-.9h6c.5 0 .9.4.9.9 0 .3.2.5.5.5s.5-.2.5-.5c0-1.1-.9-2-2-2z"/><path d="M26.1 31.6c-.3 0-.5.2-.5.5v1.3c0 .3.2.5.5.5s.5-.2.5-.5v-1.3c.1-.3-.2-.5-.5-.5zM38 28.3h-6c-1.1 0-2 .9-2 2v6.9c0 1.1.9 2 2 2h6c1.1 0 2-.9 2-2V35c0-.3-.2-.5-.5-.5s-.5.2-.5.5v2.2c0 .5-.4.9-.9.9h-6c-.5 0-.9-.4-.9-.9v-6.9c0-.5.4-.9.9-.9h6c.5 0 .9.4.9.9 0 .3.2.5.5.5s.5-.2.5-.5c0-1.1-.9-2-2-2z"/><path d="M39.5 31.6c-.3 0-.5.2-.5.5v1.3c0 .3.2.5.5.5s.5-.2.5-.5v-1.3c0-.3-.2-.5-.5-.5zm11.8-3.3h-6c-1.1 0-2 .9-2 2v6.9c0 1.1.9 2 2 2h6c1.1 0 2-.9 2-2V35c0-.3-.2-.5-.5-.5s-.5.2-.5.5v2.2c0 .5-.4.9-.9.9h-6c-.5 0-.9-.4-.9-.9v-6.9c0-.5.4-.9.9-.9h6c.5 0 .9.4.9.9 0 .3.2.5.5.5s.5-.2.5-.5c0-1.1-.9-2-2-2z"/><path d="M52.8 31.6c-.3 0-.5.2-.5.5v1.3c0 .3.2.5.5.5s.5-.2.5-.5v-1.3c0-.3-.2-.5-.5-.5z"/><text y="115" font-size="5" font-weight="bold" font-family="'Helvetica Neue', Helvetica, Arial-Unicode, Arial, Sans-serif">Created by Fuat şanlı</text><text y="120" font-size="5" font-weight="bold" font-family="'Helvetica Neue', Helvetica, Arial-Unicode, Arial, Sans-serif">from the Noun Project</text></svg>