<svg xmlns="http://www.w3.org/2000/svg" viewBox="0 0 100 71.18125"><path d="M8.741 14.871l5.148 5.149 9.315-9.315a1.39 1.39 0 1 0-1.963-1.964l-7.351 7.351-3.184-3.185a1.389 1.389 0 1 0-1.965 1.964zm13.481 7.351c-.384 0-.731.156-.982.407l-7.351 7.351-3.184-3.184A1.389 1.389 0 1 0 8.74 28.76l5.148 5.149 9.315-9.315a1.39 1.39 0 0 0-.981-2.372zm0 13.889c-.384 0-.731.156-.982.407l-7.351 7.352-3.184-3.185a1.389 1.389 0 1 0-1.965 1.964l5.148 5.148 9.315-9.315a1.389 1.389 0 0 0-.981-2.371zM26.389 12.5h12.5v4.167h-12.5zm0 13.889h12.5v4.167h-12.5zm0 13.889h12.5v4.167h-12.5z"/><path d="M0 0v56.945h100V0H0zm2.778 54.167V2.778h40.278v51.389H2.778zm94.445 0h-51.39V2.778h51.389v51.389z"/><path d="M80.556 40.278v1.389h-1.389V27.778h-2.778v-1.389H65.277v1.389h-1.388V13.889h-2.778V12.5H50v4.167h11.111v-1.389H62.5v13.889h2.777v1.388h11.112v-1.388h1.388v13.888h2.779v1.39h11.111v-4.167z"/><text y="71.945" font-size="5" font-weight="bold" font-family="'Helvetica Neue', Helvetica, Arial-Unicode, Arial, Sans-serif">Created by Jeremy Boatman</text><text y="76.945" font-size="5" font-weight="bold" font-family="'Helvetica Neue', Helvetica, Arial-Unicode, Arial, Sans-serif">from the Noun Project</text></svg>