<svg xmlns="http://www.w3.org/2000/svg" viewBox="0 0 100 125"><path d="M78.9 21.1c-.8-.8-2-1.2-3.2-1-7 1.2-13.4 4.5-18.4 9.6L42.1 44.9c-1 1-1.2 2.6-.5 3.8l-2.2 2.2c-.4.4-.4 1 0 1.4l8.3 8.3c.2.2.4.3.7.3s.5-.1.7-.3l2.2-2.2c.5.3 1 .4 1.5.4.8 0 1.6-.3 2.2-.9l15.3-15.3c5-5 8.3-11.4 9.6-18.4.3-1.1-.1-2.3-1-3.1zM48.4 58.5l-6.9-6.9 1.4-1.4 3.5 3.5 3.5 3.5-1.5 1.3zM78 23.9c-1.2 6.6-4.3 12.6-9 17.3L53.7 56.5c-.5.5-1.2.5-1.6 0L43.5 48c-.5-.5-.5-1.2 0-1.6L58.8 31c4.7-4.7 10.7-7.9 17.3-9h.3c.4 0 .8.2 1.1.5.4.3.6.9.5 1.4zM37 58c-.8-.8-2-1.2-3.2-1.1-1.2.2-2.2.9-2.8 1.9L20.1 78.5c-.2.4-.1.9.2 1.2.2.2.4.3.7.3.2 0 .3 0 .5-.1L41.1 69c1.1-.6 1.7-1.6 1.9-2.8.2-1.2-.2-2.4-1.1-3.2L37 58zm4.1 7.9c-.1.6-.4 1-.9 1.3l-16.6 9.2 9.2-16.6c.3-.5.8-.8 1.3-.9h.3c.5 0 .9.2 1.3.5l5 5c.3.4.5.9.4 1.5zM67 28.7c-1.3.4-2.7 1.2-3.8 2.4-1.2 1.2-2 2.5-2.4 3.8-.4 1.5-.2 2.8.6 3.7.6.6 1.4.9 2.2.9 1.6 0 3.6-.9 5.3-2.6 1.2-1.2 2-2.5 2.4-3.8.4-1.5.2-2.8-.6-3.7-.8-1-2.1-1.2-3.7-.7zm2.4 3.7c-.3 1-1 2.1-1.9 3-1.8 1.8-4 2.5-4.7 1.8-.3-.3-.3-.9-.1-1.7.3-1 1-2.1 1.9-3 .9-.9 2-1.6 3-1.9.3-.1.6-.1.9-.1.4 0 .6.1.8.3.3.2.3.8.1 1.6zM31.8 48.1c-1.7-3.2 8.4-14 12.9-16.4 3.1-1.6 6.4-2.2 8.7-1.5.1 0 .2.1.4.2L52.1 32c-1.8-.3-4.2.3-6.5 1.5-4.9 2.6-12 11.3-12.1 13.5.7 0 2.3-.5 6.2-2.3-.4.8-.7 1.6-.7 2.5-2.7 1.2-4.6 1.8-5.7 1.8-.3 0-.5 0-.7-.1-.4-.2-.7-.5-.8-.8zm37.9-1.5c.7 2.3.1 5.6-1.5 8.7-2.2 4.2-11.5 13.1-15.5 13.1-.3 0-.6-.1-.9-.2-.3-.1-.6-.4-.8-1-.3-1 .2-3 1.7-6.4.9 0 1.7-.2 2.5-.7-1.9 4-2.3 5.6-2.3 6.3 2.1-.1 10.9-7.2 13.5-12.1 1.2-2.3 1.8-4.8 1.5-6.5l1.6-1.6c.1.2.2.3.2.4z"/></svg>