<svg xmlns="http://www.w3.org/2000/svg" data-name="Layer 1" viewBox="0 0 100 125"><title>big4_outline</title><path d="M87.38 13.19A2 2 0 0 0 86.8 12l-.52-.52a2 2 0 0 0-1.21-.58C73.2 9.67 61.18 14.08 50.32 23.64a75 75 0 0 0-12 13.47c-9-2.48-22.25 6.1-24.73 9.14a2.35 2.35 0 0 0-.3 3c1.1 1.48 3 .69 3.74.39 4.15-1.71 9.43 1 11.94 2.49l-3 5.29a2 2 0 0 0 .32 2.4L38.1 71.66a2 2 0 0 0 2.31.37L46 69.19c1.77 2.86 4.15 8.1 2.52 12-.3.72-1.09 2.64.39 3.74a2.17 2.17 0 0 0 1.27.42 2.79 2.79 0 0 0 1.82-.7c3-2.48 11.61-15.73 9.14-24.73a75 75 0 0 0 13.47-12c9.57-10.84 13.98-22.86 12.77-34.73zm-15.69 32a69.68 69.68 0 0 1-14 12.19 2 2 0 0 0-.77 2.62c2.09 4.47-1 11.88-3.89 16.79-.62-5.84-4.5-11.05-4.72-11.34a2 2 0 0 0-2.5-.58l-5.91 3-9.69-9.69 3.17-5.58a2 2 0 0 0-.53-2.6c-.29-.22-5.5-4.1-11.34-4.72 4.91-2.9 12.32-6 16.79-3.89a2 2 0 0 0 2.55-.77A69.32 69.32 0 0 1 53 26.64C62.74 18 73 14 83.5 14.76c.72 10.46-3.25 20.7-11.81 30.46zM53.4 34a7.68 7.68 0 0 0 10.86 10.87A7.68 7.68 0 0 0 53.4 34zm8 8a3.77 3.77 0 0 1-5.21 0 3.68 3.68 0 1 1 5.24 0zM17.76 74a2 2 0 0 1 0-2.83l6.65-6.65a2 2 0 0 1 2.83 2.83L20.59 74a2 2 0 0 1-2.83 0zm16-3a2 2 0 0 1 0 2.83L20.57 87a2 2 0 0 1-2.83-2.83L30.92 71a2 2 0 0 1 2.83 0z"/><text y="115" font-size="5" font-weight="bold" font-family="'Helvetica Neue', Helvetica, Arial-Unicode, Arial, Sans-serif">Created by Karthik Aathis</text><text y="120" font-size="5" font-weight="bold" font-family="'Helvetica Neue', Helvetica, Arial-Unicode, Arial, Sans-serif">from the Noun Project</text></svg>