<svg xmlns="http://www.w3.org/2000/svg" viewBox="0 0 400 500"><title>Artboard 1 copy 16</title><g data-name="Immersive experience"><path d="M136.16 66.34a80.33 80.33 0 1 0 80.33 80.33 80.42 80.42 0 0 0-80.33-80.33zm26.61 56.77a35.78 35.78 0 0 1 3.24 4.27q.61.94 1.16 1.92a35.36 35.36 0 0 1 3.09 7.32q.39 1.33.68 2.69a35.39 35.39 0 0 1 .62 4.15v.33c0 .42.07.84.09 1.27s0 .76 0 1.15v2.41q0 .8-.12 1.59v.28c-.05.49-.11 1-.19 1.47v.28q-.12.74-.26 1.48v.21q-.17.8-.37 1.59c-.11.43-.23.85-.36 1.27l-.12.38a35.6 35.6 0 1 1-7.35-34.11zM136.16 217a70.32 70.32 0 0 1-2.45-140.6v29.89a40.43 40.43 0 1 0 42.43 46.63v-.26q.12-.81.21-1.64v-.4q.08-.8.12-1.61v-4.14c0-.47 0-.69-.06-1s0-.47-.05-.7 0-.22 0-.34c0-.33-.06-.65-.1-1v-.26c-.1-.78-.23-1.56-.38-2.33-.07-.35-.14-.7-.22-1s-.18-.82-.28-1.23-.2-.82-.32-1.22-.17-.57-.26-.86a40.35 40.35 0 0 0-6.63-12.93 40.84 40.84 0 0 0-3.22-3.69 40.35 40.35 0 0 0-26.34-12V76.4a70.13 70.13 0 0 1 48.81 22.2c1.12 1.19 2.2 2.41 3.23 3.68a70.16 70.16 0 0 1 0 88.76c-1 1.27-2.11 2.49-3.23 3.68A70.13 70.13 0 0 1 136.16 217z"/><path d="M185.31 192.85l1.53 1.33 2.62-4.21-1.52-1.33-2.63 4.21zm-6.48-5.65l1.53 1.33 2.62-4.22-1.53-1.33-2.62 4.22zm-6.48-5.66l1.52 1.33 2.63-4.21-1.53-1.33-2.62 4.21zm-6.49-5.65l1.53 1.33 2.62-4.22-1.53-1.33-2.62 4.22zm4.97-56.26l5.17-4.53 8.88-14.28-5.17 4.52-8.88 14.29zm17.29 206.03h-42.93v-2.75l-1.71 2.75h-7.64l9.35-15v-3.79l-11.71 18.83h-7.64l19.35-31.13v-3.79l-21.71 34.92h-7.64L142 283.58l2.34.87a2.6 2.6 0 0 0 2.21-.26l42.18-28.1A2.45 2.45 0 0 0 186 252l-41.14 27.41-41-15.25a2.44 2.44 0 0 0-2.2.25L63.82 289.3v-50.57a3 3 0 0 0-6 0v89.92a3 3 0 0 0 3 3h127.3a3 3 0 0 0 0-6zm-74.64 0h-7.64l28-45.09 6.21 2.31zm-49.66-30.5L103 269.4l.31-.2 4.27 1.59-4.58 7.37V282l6.5-10.45 6.21 2.31L103 294.25V298l14.62-23.52 6.21 2.31L103 310.34v3.79l22.74-36.58 6.21 2.31-28.47 45.81H63.82zm289.77-187.09h-97.86a5 5 0 0 0-3.81 1.77l-28.49 33.61a5 5 0 0 0 0 6.47l28.49 33.61a5 5 0 0 0 3.81 1.77h97.86a5 5 0 0 0 5-5v-67.23a5 5 0 0 0-5-5zm-5 67.22H258l-24.25-28.61L258 118.07h90.54zm-37.68 61h-80.67v-1.05a3 3 0 0 0-6 0v93.42a3 3 0 0 0 6 0v-6.61h38.84a2.45 2.45 0 0 0 2.45-2.45v-11a2.45 2.45 0 0 0-2.45-2.45h-38.84v-7.39h61.18a2.45 2.45 0 0 0 2.45-2.45v-11a2.45 2.45 0 0 0-2.45-2.45h-61.18v-7.39h39.68a2.45 2.45 0 0 0 2.45-2.45V262a2.45 2.45 0 0 0-2.45-2.45h-39.68v-7.39h80.68a2.45 2.45 0 0 0 2.45-2.45v-11a2.45 2.45 0 0 0-2.46-2.42zm-44.29 74.77v6.1h-36.38v-6.1zm22.38-23.3v6.1h-58.76v-6.1zm-21.5-23.29v6.1h-37.26v-6.1zm41-17.19h-78.26v-6.1h78.23z"/></g><text y="415" font-size="5" font-weight="bold" font-family="'Helvetica Neue', Helvetica, Arial-Unicode, Arial, Sans-serif">Created by Paweł Gleń</text><text y="420" font-size="5" font-weight="bold" font-family="'Helvetica Neue', Helvetica, Arial-Unicode, Arial, Sans-serif">from the Noun Project</text></svg>