<svg xmlns="http://www.w3.org/2000/svg" viewBox="0 0 400 500"><title>Artboard 1 copy 8</title><g data-name="Immersive experience"><path d="M325.87 226.66c.11-.52.22-1 .32-1.55q.21-1.06.41-2.13l.13-.77a128.38 128.38 0 0 0-12.3-81q-.69-1.35-1.41-2.68A127.88 127.88 0 0 0 270 92a130.1 130.1 0 0 0-21-11l-.29-.12-2.24-.88-1.3-.5-1.23-.5c-.78-.28-1.56-.57-2.34-.84l-.18-.06A130.11 130.11 0 0 0 224 73.45v-7h.46a15 15 0 0 0 0-30h-50.4a15 15 0 1 0 0 30H176v6.67A127.58 127.58 0 0 0 137.27 87l-7.65-11.58A14.43 14.43 0 0 0 107 61.4l-7.69 5.4a14.44 14.44 0 0 0 5.81 26c.33.06.66.09 1 .13l7.21 10.92a128.61 128.61 0 0 0 32.9 213l.94.42 1.16.5 1.12.49.53.23c.73.31 1.47.61 2.21.91l1.63.64 1.89.72q1.67.61 3.36 1.18l1.35.44q1.45.47 2.91.9l.93.28q2 .59 4.07 1.11h.18q2.12.53 4.25 1h.11a128.58 128.58 0 0 0 87.35-12.14l.38-.2c.72-.38 1.44-.79 2.15-1.18a128.36 128.36 0 0 0 55.7-62.16l.27-.62q.41-1 .8-2 .3-.74.58-1.49c.2-.53.4-1.05.6-1.58.39-1.06.77-2.12 1.13-3.18.26-.77.51-1.55.76-2.32l.26-.82c.16-.53.32-1.06.48-1.6s.32-1.05.46-1.58c.08-.28.15-.57.23-.85.21-.78.43-1.57.63-2.35.28-1.1.54-2.2.79-3.31.2-.5.31-1.07.43-1.63zM89.79 244v-.06c-.3-.75-.59-1.51-.87-2.26-.45-1.19-.89-2.39-1.3-3.6l-.08-.25q-.36-1.07-.7-2.14-.28-.88-.54-1.77l-.21-.7q-.58-2-1.09-4l-.13-.54q-.43-1.72-.8-3.46-.14-.65-.28-1.31c-.12-.56-.23-1.12-.34-1.68-.2-1-.39-2.07-.55-3.11v-.15c-.12-.73-.22-1.45-.33-2.18-.05-.38-.11-.76-.16-1.15s-.1-.77-.14-1.15a118.56 118.56 0 0 1 40.25-104.2l19.63-13.78.23-.13 1.64-.9.58-.3A119.2 119.2 0 0 1 225 84q2 .43 4 .94h.08q1.91.48 3.82 1l.76.23q1.4.42 2.8.87l1.16.38q1.58.53 3.15 1.1l1.65.63 1.61.63 2 .81.68.29q2.13.91 4.21 1.91l1.33.65 1 .48c1 .5 2 1 3 1.56A118.64 118.64 0 1 1 89.79 244zm84.27-187.57a5 5 0 0 1 0-10h50.4a5 5 0 0 1 0 10h-50.4zM186 71.33v-4.9h28v4.9h-6a128.54 128.54 0 0 0-18 0zM105.11 75l7.69-5.4a4.44 4.44 0 1 1 5.11 7.27l-5.12 3.59-2.57 1.81a4.44 4.44 0 0 1-5.1-7.27zm11.2 15.21l7.34-5.21.25-.17 4.8 7.27c-1.13.74-2.26 1.5-3.37 2.28-1.42 1-2.81 2-4.19 3.08z"/><path d="M101.74 197.61a2.5 2.5 0 1 0 2.5 2.5 2.5 2.5 0 0 0-2.5-2.5zM285 153.18a2.44 2.44 0 0 0 1.25-.34 2.5 2.5 0 1 0-1.25.34zm-37.09 129.75a2.5 2.5 0 1 0 3.42.92 2.51 2.51 0 0 0-3.42-.93zM113.58 153.14a2.43 2.43 0 0 0 1.24.33 2.5 2.5 0 0 0 1.26-4.66 2.5 2.5 0 1 0-2.5 4.33zm184.68 49.36a2.5 2.5 0 0 0 2.5-2.5.5.5 0 0 0 0-.12.42.42 0 0 0 0-.11 2.5 2.5 0 1 0-5 0v.23a2.5 2.5 0 0 0 2.5 2.5zm-184.58 44.55a2.5 2.5 0 0 0 1.26 4.66 2.5 2.5 0 1 0-1.26-4.66zm88.88 51.2a2.5 2.5 0 1 0-2.5 2.51 2.5 2.5 0 0 0 2.5-2.51zM286.37 247a2.5 2.5 0 1 0-2.5 4.33 2.45 2.45 0 0 0 1.25.34 2.5 2.5 0 0 0 1.25-4.67zm-134.19 36a2.5 2.5 0 1 0-2.5 4.33 2.44 2.44 0 0 0 1.25.33 2.5 2.5 0 0 0 1.25-4.66zm47.66-178.76a2.5 2.5 0 1 0-2.51-2.5 2.49 2.49 0 0 0 2.51 2.5zM247.73 117a2.44 2.44 0 0 0 1.24.34 2.51 2.51 0 1 0-1.24-.34zm-96.99.46a2.57 2.57 0 0 0 1.25-.33 2.52 2.52 0 1 0-1.25.33zm53.75 87.48l.1-.11 71.1 39.05-69.27-42.34a7.39 7.39 0 0 0-12.06-7.37l-10.72-6.55-.1-.06a2.5 2.5 0 1 0-2.41 4.38l10.94 6a7.39 7.39 0 0 0 12.41 7z"/><path d="M314.41 200A114.41 114.41 0 1 0 200 314.41 114.54 114.54 0 0 0 314.41 200zm-224.82 0A110.41 110.41 0 1 1 200 310.41 110.53 110.53 0 0 1 89.59 200z"/></g><text y="415" font-size="5" font-weight="bold" font-family="'Helvetica Neue', Helvetica, Arial-Unicode, Arial, Sans-serif">Created by Paweł Gleń</text><text y="420" font-size="5" font-weight="bold" font-family="'Helvetica Neue', Helvetica, Arial-Unicode, Arial, Sans-serif">from the Noun Project</text></svg>