<svg xmlns="http://www.w3.org/2000/svg" xmlns:xlink="http://www.w3.org/1999/xlink" version="1.1" x="0px" y="0px" viewBox="0 0 100 125" style="enable-background:new 0 0 100 100;" xml:space="preserve"><g><path d="M57.7,55.5H11V25.1h59.4v1.5c0,0.3,0.2,0.5,0.5,0.5c0.3,0,0.5-0.2,0.5-0.5v-7.1c0-0.3-0.2-0.5-0.5-0.5h-4.5   c-0.3,0-0.5,0.2-0.5,0.5s0.2,0.5,0.5,0.5h4v4H11v-4h49.3c0.3,0,0.5-0.2,0.5-0.5s-0.2-0.5-0.5-0.5H10.4c-0.3,0-0.5,0.2-0.5,0.5V56   c0,0.3,0.2,0.5,0.5,0.5h47.3c0.3,0,0.5-0.2,0.5-0.5S58,55.5,57.7,55.5z"/><path d="M62.4,18.9c-0.3,0-0.5,0.2-0.5,0.5s0.2,0.5,0.5,0.5h1.9c0.3,0,0.5-0.2,0.5-0.5s-0.2-0.5-0.5-0.5H62.4z"/><path d="M43.6,65.7c0-1.6-1.3-2.9-2.9-2.9c-1.6,0-2.9,1.3-2.9,2.9c0,1.6,1.3,2.9,2.9,2.9C42.3,68.5,43.6,67.3,43.6,65.7z    M38.9,65.7c0-1,0.8-1.8,1.8-1.8s1.8,0.8,1.8,1.8c0,1-0.8,1.8-1.8,1.8S38.9,66.7,38.9,65.7z"/><path d="M19.5,70.6h-2.6c-0.3,0-0.5,0.2-0.5,0.5c0,0.3,0.2,0.5,0.5,0.5h2.6c0.3,0,0.5-0.2,0.5-0.5C20.1,70.9,19.8,70.6,19.5,70.6z"/><path d="M57.7,70.6H22.1c-0.3,0-0.5,0.2-0.5,0.5c0,0.3,0.2,0.5,0.5,0.5H32L30.4,82h-3.5c-0.8,0-1.5,0.7-1.5,1.5   c0,0.8,0.7,1.5,1.5,1.5h26.6c0.8,0,1.5-0.7,1.5-1.5c0-0.8-0.7-1.5-1.5-1.5H50l-0.8-5.1c0-0.3-0.3-0.5-0.6-0.5   c-0.3,0-0.5,0.3-0.5,0.6l0.8,5H31.5l1.7-10.3h14.1l0.5,3.1c0,0.3,0.3,0.5,0.5,0.5c0,0,0.1,0,0.1,0c0.3,0,0.5-0.3,0.5-0.6l-0.5-2.9   h9.4c0.3,0,0.5-0.2,0.5-0.5C58.2,70.9,58,70.6,57.7,70.6z M53.9,83.5c0,0.2-0.2,0.4-0.4,0.4H26.9c-0.2,0-0.4-0.2-0.4-0.4   c0-0.2,0.2-0.4,0.4-0.4h26.6C53.7,83.1,53.9,83.3,53.9,83.5z"/><path d="M57.7,59.2H6.8V20.7c0-2.5,2.1-4.6,4.6-4.6H70c2.5,0,4.6,2.1,4.6,4.6v5.8c0,0.3,0.2,0.5,0.5,0.5c0.3,0,0.5-0.2,0.5-0.5   v-5.8c0-3.1-2.6-5.7-5.7-5.7H11.4c-3.1,0-5.7,2.6-5.7,5.7V66c0,3.1,2.6,5.7,5.7,5.7c0,0,0.1,0,0.1,0c0,0,0.1,0,0.1,0h2.6   c0.3,0,0.5-0.2,0.5-0.5c0-0.3-0.2-0.5-0.5-0.5h-2.6c0,0-0.1,0-0.1,0c0,0-0.1,0-0.1,0c-2.5,0-4.6-2.1-4.6-4.6v-5.7h50.9   c0.3,0,0.5-0.2,0.5-0.5C58.2,59.4,58,59.2,57.7,59.2z"/><path d="M93.8,50c-0.3,0-0.5,0.2-0.5,0.5v2.1c0,0.3,0.2,0.5,0.5,0.5c0.3,0,0.5-0.2,0.5-0.5v-2.1C94.3,50.3,94.1,50,93.8,50z"/><path d="M92.1,42.5H71c-1.2,0-2.2,1-2.2,2.2v22.5c0,1.2,1,2.2,2.2,2.2h21.1c1.2,0,2.2-1,2.2-2.2V54.8c0-0.3-0.2-0.5-0.5-0.5   c-0.3,0-0.5,0.2-0.5,0.5v12.5c0,0.6-0.5,1.1-1.1,1.1H71c-0.6,0-1.1-0.5-1.1-1.1V44.7c0-0.6,0.5-1.1,1.1-1.1h21.1   c0.6,0,1.1,0.5,1.1,1.1v3.9c0,0.3,0.2,0.5,0.5,0.5c0.3,0,0.5-0.2,0.5-0.5v-3.9C94.3,43.5,93.3,42.5,92.1,42.5z"/><path d="M90,70.3c-0.3,0-0.5,0.2-0.5,0.5v9.4c0,2-1.6,3.6-3.6,3.6H65.2c-2,0-3.6-1.6-3.6-3.6V32.9c0-2,1.6-3.6,3.6-3.6h20.7   c2,0,3.6,1.6,3.6,3.6v8.1c0,0.3,0.2,0.5,0.5,0.5c0.3,0,0.5-0.2,0.5-0.5v-8.1c0-2.6-2.1-4.7-4.7-4.7H65.2c-2.6,0-4.7,2.1-4.7,4.7   v47.3c0,2.6,2.1,4.7,4.7,4.7h20.7c2.6,0,4.7-2.1,4.7-4.7v-9.4C90.5,70.6,90.3,70.3,90,70.3z"/><path d="M77.9,37.2c0.3,0,0.5-0.2,0.5-0.5c0-0.3-0.2-0.5-0.5-0.5H63.1c-0.3,0-0.5,0.2-0.5,0.5V75c0,0.3,0.2,0.5,0.5,0.5h24.8   c0.3,0,0.5-0.2,0.5-0.5v-4.1c0-0.3-0.2-0.5-0.5-0.5s-0.5,0.2-0.5,0.5v3.6H63.6V37.2H77.9z"/><path d="M79.6,37.2h1.6c0.3,0,0.5-0.2,0.5-0.5c0-0.3-0.2-0.5-0.5-0.5h-1.6c-0.3,0-0.5,0.2-0.5,0.5C79,36.9,79.3,37.2,79.6,37.2z"/><path d="M87.9,41.6c0.3,0,0.5-0.2,0.5-0.5v-4.4c0-0.3-0.2-0.5-0.5-0.5h-5.1c-0.3,0-0.5,0.2-0.5,0.5c0,0.3,0.2,0.5,0.5,0.5h4.5v3.9   C87.4,41.4,87.6,41.6,87.9,41.6z"/><path d="M81,32.8c0-0.3-0.2-0.5-0.5-0.5h-7.9c-0.3,0-0.5,0.2-0.5,0.5c0,0.3,0.2,0.5,0.5,0.5h7.9C80.8,33.3,81,33.1,81,32.8z"/><path d="M70.9,33.1c0.1-0.1,0.2-0.2,0.2-0.4s-0.1-0.3-0.2-0.4c-0.2-0.2-0.6-0.2-0.8,0C70,32.5,70,32.6,70,32.8s0.1,0.3,0.2,0.4   c0.1,0.1,0.2,0.2,0.4,0.2C70.7,33.3,70.8,33.2,70.9,33.1z"/><path d="M72.7,79.6c0,1.6,1.3,2.8,2.8,2.8s2.8-1.3,2.8-2.8s-1.3-2.8-2.8-2.8S72.7,78.1,72.7,79.6z M77.2,79.6c0,1-0.8,1.7-1.7,1.7   s-1.7-0.8-1.7-1.7s0.8-1.7,1.7-1.7S77.2,78.7,77.2,79.6z"/><path d="M90.6,57.8c0.5,0,0.8-0.4,0.8-0.9v-1.8c0-0.5-0.4-0.9-0.8-0.9l-2-0.2c-0.2-0.5-0.4-1-0.6-1.5l1.2-1.6   c0.1-0.2,0.2-0.4,0.2-0.6c0-0.2-0.1-0.5-0.3-0.7l-1.2-1.2C87.6,48,87,48,86.7,48.3l-1.6,1.2c-0.5-0.3-1-0.5-1.5-0.6l-0.2-2   c0-0.5-0.4-0.8-0.9-0.8h-1.8c-0.5,0-0.9,0.4-0.9,0.8l-0.2,2c-0.5,0.2-1,0.4-1.5,0.6l-1.6-1.2c-0.2-0.2-0.4-0.2-0.6-0.2   c-0.2,0-0.4,0.1-0.6,0.3l-1.2,1.2c-0.2,0.2-0.3,0.4-0.3,0.7c0,0.2,0.1,0.4,0.2,0.6l1.2,1.6c-0.3,0.5-0.5,1-0.6,1.5l-2,0.2   c-0.5,0-0.8,0.4-0.8,0.9v1.8c0,0.5,0.4,0.9,0.8,0.9l2,0.2c0.2,0.5,0.4,1,0.6,1.5l-1.2,1.6c-0.1,0.2-0.2,0.4-0.2,0.6   c0,0.2,0.1,0.5,0.3,0.7l1.2,1.2c0.2,0.2,0.4,0.3,0.6,0.3c0,0,0,0,0.1,0c0.2,0,0.4-0.1,0.6-0.2l1.6-1.2c0.5,0.3,1,0.5,1.5,0.6l0.2,2   c0,0.5,0.4,0.8,0.9,0.8h1.8c0.5,0,0.9-0.4,0.9-0.8l0.2-2c0.5-0.2,1-0.4,1.5-0.6l1.6,1.2c0.2,0.1,0.4,0.2,0.6,0.2   c0.2,0,0.5-0.1,0.7-0.3l1.2-1.2c0.2-0.2,0.3-0.4,0.3-0.7c0-0.2-0.1-0.4-0.2-0.6L88,59.6c0.3-0.5,0.5-1,0.6-1.5L90.6,57.8z    M88.8,55.1l1.5,0.2v1.5l-1.5,0.2c0-0.3,0.1-0.6,0.1-0.9C88.9,55.7,88.9,55.4,88.8,55.1z M74.2,56.9l-1.5-0.2v-1.5l1.5-0.2   c0,0.3-0.1,0.6-0.1,0.9C74.1,56.3,74.2,56.6,74.2,56.9z M87.2,49.3l1,1l-0.9,1.2C87,51,86.5,50.6,86,50.2L87.2,49.3z M80.8,47.2   h1.5l0.2,1.5c-0.3,0-0.6-0.1-0.9-0.1c-0.3,0-0.6,0-0.9,0.1L80.8,47.2z M74.8,50.3l1-1l1.2,0.9c-0.5,0.4-0.9,0.8-1.3,1.3L74.8,50.3z    M75.8,62.8l-1-1l0.9-1.2c0.4,0.5,0.8,0.9,1.3,1.3L75.8,62.8z M82.2,64.8h-1.5l-0.2-1.5c0.3,0,0.6,0.1,0.9,0.1c0.3,0,0.6,0,0.9-0.1   L82.2,64.8z M81.5,62.3c-3.5,0-6.3-2.8-6.3-6.3c0-3.5,2.8-6.3,6.3-6.3c3.5,0,6.3,2.8,6.3,6.3C87.8,59.5,85,62.3,81.5,62.3z    M88.3,61.7l-1,1L86,61.8c0.5-0.4,0.9-0.8,1.3-1.3L88.3,61.7z"/><path d="M81.5,52.2c-2.1,0-3.8,1.7-3.8,3.8c0,2.1,1.7,3.8,3.8,3.8c2.1,0,3.8-1.7,3.8-3.8C85.4,53.9,83.6,52.2,81.5,52.2z    M81.5,58.7c-1.5,0-2.7-1.2-2.7-2.7c0-1.5,1.2-2.7,2.7-2.7c1.5,0,2.7,1.2,2.7,2.7C84.2,57.5,83,58.7,81.5,58.7z"/><path d="M24.7,41.6h-6c-1.1,0-2,0.9-2,2v6.9c0,1.1,0.9,2,2,2h6c1.1,0,2-0.9,2-2v-2.2c0-0.3-0.2-0.5-0.5-0.5c-0.3,0-0.5,0.2-0.5,0.5   v2.2c0,0.5-0.4,0.9-0.9,0.9h-6c-0.5,0-0.9-0.4-0.9-0.9v-6.9c0-0.5,0.4-0.9,0.9-0.9h6c0.5,0,0.9,0.4,0.9,0.9c0,0.3,0.2,0.5,0.5,0.5   c0.3,0,0.5-0.2,0.5-0.5C26.7,42.5,25.8,41.6,24.7,41.6z"/><path d="M26.1,44.8c-0.3,0-0.5,0.2-0.5,0.5v1.3c0,0.3,0.2,0.5,0.5,0.5c0.3,0,0.5-0.2,0.5-0.5v-1.3C26.7,45,26.4,44.8,26.1,44.8z"/><path d="M38,41.6h-6c-1.1,0-2,0.9-2,2v6.9c0,1.1,0.9,2,2,2h6c1.1,0,2-0.9,2-2v-2.2c0-0.3-0.2-0.5-0.5-0.5c-0.3,0-0.5,0.2-0.5,0.5   v2.2c0,0.5-0.4,0.9-0.9,0.9h-6c-0.5,0-0.9-0.4-0.9-0.9v-6.9c0-0.5,0.4-0.9,0.9-0.9h6c0.5,0,0.9,0.4,0.9,0.9c0,0.3,0.2,0.5,0.5,0.5   c0.3,0,0.5-0.2,0.5-0.5C40,42.5,39.1,41.6,38,41.6z"/><path d="M39.5,44.8c-0.3,0-0.5,0.2-0.5,0.5v1.3c0,0.3,0.2,0.5,0.5,0.5c0.3,0,0.5-0.2,0.5-0.5v-1.3C40,45,39.8,44.8,39.5,44.8z"/><path d="M51.3,41.6h-6c-1.1,0-2,0.9-2,2v6.9c0,1.1,0.9,2,2,2h6c1.1,0,2-0.9,2-2v-2.2c0-0.3-0.2-0.5-0.5-0.5c-0.3,0-0.5,0.2-0.5,0.5   v2.2c0,0.5-0.4,0.9-0.9,0.9h-6c-0.5,0-0.9-0.4-0.9-0.9v-6.9c0-0.5,0.4-0.9,0.9-0.9h6c0.5,0,0.9,0.4,0.9,0.9c0,0.3,0.2,0.5,0.5,0.5   c0.3,0,0.5-0.2,0.5-0.5C53.3,42.5,52.4,41.6,51.3,41.6z"/><path d="M52.8,44.8c-0.3,0-0.5,0.2-0.5,0.5v1.3c0,0.3,0.2,0.5,0.5,0.5c0.3,0,0.5-0.2,0.5-0.5v-1.3C53.3,45,53.1,44.8,52.8,44.8z"/><path d="M24.7,28.3h-6c-1.1,0-2,0.9-2,2v6.9c0,1.1,0.9,2,2,2h6c1.1,0,2-0.9,2-2v-2.2c0-0.3-0.2-0.5-0.5-0.5c-0.3,0-0.5,0.2-0.5,0.5   v2.2c0,0.5-0.4,0.9-0.9,0.9h-6c-0.5,0-0.9-0.4-0.9-0.9v-6.9c0-0.5,0.4-0.9,0.9-0.9h6c0.5,0,0.9,0.4,0.9,0.9c0,0.3,0.2,0.5,0.5,0.5   c0.3,0,0.5-0.2,0.5-0.5C26.7,29.2,25.8,28.3,24.7,28.3z"/><path d="M26.1,31.6c-0.3,0-0.5,0.2-0.5,0.5v1.3c0,0.3,0.2,0.5,0.5,0.5c0.3,0,0.5-0.2,0.5-0.5v-1.3C26.7,31.8,26.4,31.6,26.1,31.6z"/><path d="M38,28.3h-6c-1.1,0-2,0.9-2,2v6.9c0,1.1,0.9,2,2,2h6c1.1,0,2-0.9,2-2v-2.2c0-0.3-0.2-0.5-0.5-0.5c-0.3,0-0.5,0.2-0.5,0.5   v2.2c0,0.5-0.4,0.9-0.9,0.9h-6c-0.5,0-0.9-0.4-0.9-0.9v-6.9c0-0.5,0.4-0.9,0.9-0.9h6c0.5,0,0.9,0.4,0.9,0.9c0,0.3,0.2,0.5,0.5,0.5   c0.3,0,0.5-0.2,0.5-0.5C40,29.2,39.1,28.3,38,28.3z"/><path d="M39.5,31.6c-0.3,0-0.5,0.2-0.5,0.5v1.3c0,0.3,0.2,0.5,0.5,0.5c0.3,0,0.5-0.2,0.5-0.5v-1.3C40,31.8,39.8,31.6,39.5,31.6z"/><path d="M51.3,28.3h-6c-1.1,0-2,0.9-2,2v6.9c0,1.1,0.9,2,2,2h6c1.1,0,2-0.9,2-2v-2.2c0-0.3-0.2-0.5-0.5-0.5c-0.3,0-0.5,0.2-0.5,0.5   v2.2c0,0.5-0.4,0.9-0.9,0.9h-6c-0.5,0-0.9-0.4-0.9-0.9v-6.9c0-0.5,0.4-0.9,0.9-0.9h6c0.5,0,0.9,0.4,0.9,0.9c0,0.3,0.2,0.5,0.5,0.5   c0.3,0,0.5-0.2,0.5-0.5C53.3,29.2,52.4,28.3,51.3,28.3z"/><path d="M52.8,31.6c-0.3,0-0.5,0.2-0.5,0.5v1.3c0,0.3,0.2,0.5,0.5,0.5c0.3,0,0.5-0.2,0.5-0.5v-1.3C53.3,31.8,53.1,31.6,52.8,31.6z"/></g><text x="0" y="115" fill="#000000" font-size="5px" font-weight="bold" font-family="'Helvetica Neue', Helvetica, Arial-Unicode, Arial, Sans-serif">Created by Fuat şanlı</text><text x="0" y="120" fill="#000000" font-size="5px" font-weight="bold" font-family="'Helvetica Neue', Helvetica, Arial-Unicode, Arial, Sans-serif">from the Noun Project</text></svg>