<svg xmlns="http://www.w3.org/2000/svg" xmlns:xlink="http://www.w3.org/1999/xlink" version="1.1" x="0px" y="0px" viewBox="0 0 65 81.25" enable-background="new 0 0 65 65" xml:space="preserve"><g><path d="M65.7,19.1H46.8l-5.5,11.8l-5.5-11.8h-5.5c-1.7-6.8-6.5-11.7-6.8-12l-0.5-0.5l-0.5,0.5c-0.2,0.3-5,5.2-6.8,12H-0.7   l6.4,13.8v25.6h53.5V32.8L65.7,19.1z M47.7,20.6h15.6L58,31.9H42.5L47.7,20.6z M34.8,20.6l5.3,11.3h-6.3c-0.6-1.6-1.9-2.9-3.2-3.6   c0.2-1.4,0.3-2.9,0.3-4.5c0-1.1-0.1-2.2-0.3-3.2H34.8z M32.8,34.5c0,0.4-0.1,0.7-0.2,1.1c-0.7-1.3-1.9-2.3-2.9-2.8   c0.3-0.9,0.5-1.8,0.6-2.8C31.6,30.8,32.9,32.5,32.8,34.5z M22.9,8.7c1.6,1.9,6.4,8,6.4,15.1c0,4-0.6,7.8-1.8,10.7h-2l0.3-2.9   c0.1-0.7-0.1-1.4-0.6-2c-0.5-0.5-1.2-0.8-1.9-0.8h-0.8c-0.7,0-1.4,0.3-1.9,0.8c-0.5,0.5-0.7,1.3-0.6,2l0.3,2.9h-2   c-1.2-2.9-1.8-6.7-1.8-10.7C16.5,16.7,21.3,10.6,22.9,8.7z M21.5,31.5c0-0.3,0.1-0.6,0.3-0.8c0.2-0.2,0.5-0.3,0.8-0.3h0.8   c0.3,0,0.6,0.1,0.8,0.3c0.2,0.2,0.3,0.5,0.3,0.8l-0.7,5.6h-1.5L21.5,31.5z M16.2,32.7c-1,0.5-2.2,1.5-2.9,2.8   c-0.1-0.4-0.1-0.7-0.2-1.1c-0.1-1.9,1.2-3.7,2.4-4.5C15.7,30.9,15.9,31.8,16.2,32.7z M15.3,20.6c-0.2,1-0.3,2.1-0.3,3.2   c0,1.5,0.1,3,0.3,4.5c-1.3,0.7-2.6,2-3.3,3.6H7L1.7,20.6H15.3z M7.2,33.4h4.4c0,0.4-0.1,0.7,0,1.1c0.1,1.3,0.5,2.6,1.1,3.6l1.2,2.1   l0.2-2.4c0.1-1.6,1.4-3,2.6-3.7c0.2,0.5,0.3,0.9,0.5,1.3l0.2,0.4h3.2l0.3,2.6H25l0.3-2.6h3.2l0.2-0.4c0.2-0.4,0.4-0.9,0.5-1.3   c1.1,0.7,2.4,2.1,2.5,3.7l0.2,2.4l1.2-2.1c0.6-1,1-2.3,1.1-3.6c0-0.4,0-0.8,0-1.1h6.3v23.5H7.2V33.4z M57.8,56.9H42V33.4h15.7V56.9   z"/><rect x="10.6" y="53.2" width="1.5" height="1.5"/><rect x="17.6" y="53.2" width="1.5" height="1.5"/><rect x="14.1" y="53.2" width="1.5" height="1.5"/><path d="M22.9,23.7c1.9,0,3.5-1.6,3.5-3.5c0-1.9-1.6-3.5-3.5-3.5c-1.9,0-3.5,1.6-3.5,3.5C19.5,22.2,21,23.7,22.9,23.7z M22.9,18.3   c1.1,0,2,0.9,2,2c0,1.1-0.9,2-2,2c-1.1,0-2-0.9-2-2C21,19.2,21.8,18.3,22.9,18.3z"/><rect x="18.4" y="39.3" width="1.5" height="4"/><rect x="22.2" y="41.5" width="1.5" height="3.8"/><rect x="25.9" y="39.3" width="1.5" height="4"/></g><text x="0" y="80" fill="#000000" font-size="5px" font-weight="bold" font-family="'Helvetica Neue', Helvetica, Arial-Unicode, Arial, Sans-serif">Created by Creative Stall</text><text x="0" y="85" fill="#000000" font-size="5px" font-weight="bold" font-family="'Helvetica Neue', Helvetica, Arial-Unicode, Arial, Sans-serif">from the Noun Project</text></svg>