<svg xmlns="http://www.w3.org/2000/svg" data-name="Layer 1" viewBox="0 0 100 125" x="0px" y="0px"><title>big4_outline</title><path d="M87.38,13.19A2,2,0,0,0,86.8,12l-0.52-.52a2,2,0,0,0-1.21-.58C73.2,9.67,61.18,14.08,50.32,23.64a75,75,0,0,0-12,13.47c-9-2.48-22.25,6.1-24.73,9.14a2.35,2.35,0,0,0-.3,3c1.1,1.48,3,.69,3.74.39,4.15-1.71,9.43,1,11.94,2.49l-3,5.29a2,2,0,0,0,.32,2.4L38.1,71.66a2,2,0,0,0,2.31.37L46,69.19c1.77,2.86,4.15,8.1,2.52,12-0.3.72-1.09,2.64,0.39,3.74a2.17,2.17,0,0,0,1.27.42A2.79,2.79,0,0,0,52,84.65c3-2.48,11.61-15.73,9.14-24.73a75,75,0,0,0,13.47-12C84.18,37.08,88.59,25.06,87.38,13.19Zm-15.69,32a69.68,69.68,0,0,1-14,12.19A2,2,0,0,0,56.92,60c2.09,4.47-1,11.88-3.89,16.79-0.62-5.84-4.5-11.05-4.72-11.34a2,2,0,0,0-2.5-.58l-5.91,3-9.69-9.69,3.17-5.58A2,2,0,0,0,32.85,50c-0.29-.22-5.5-4.1-11.34-4.72,4.91-2.9,12.32-6,16.79-3.89a2,2,0,0,0,2.55-.77A69.32,69.32,0,0,1,53,26.64C62.74,18,73,14,83.5,14.76,84.22,25.22,80.25,35.46,71.69,45.22ZM53.4,34A7.68,7.68,0,0,0,64.26,44.87h0A7.68,7.68,0,0,0,53.4,34Zm8,8a3.77,3.77,0,0,1-5.21,0A3.68,3.68,0,1,1,61.43,42ZM17.76,74a2,2,0,0,1,0-2.83l6.65-6.65a2,2,0,0,1,2.83,2.83L20.59,74A2,2,0,0,1,17.76,74Zm16-3a2,2,0,0,1,0,2.83L20.57,87a2,2,0,0,1-2.83-2.83L30.92,71A2,2,0,0,1,33.75,71Z"/><text x="0" y="115" fill="#000000" font-size="5px" font-weight="bold" font-family="'Helvetica Neue', Helvetica, Arial-Unicode, Arial, Sans-serif">Created by Karthik Aathis</text><text x="0" y="120" fill="#000000" font-size="5px" font-weight="bold" font-family="'Helvetica Neue', Helvetica, Arial-Unicode, Arial, Sans-serif">from the Noun Project</text></svg>